<?xml version="1.0" encoding="UTF-8"?>
<svg xmlns="http://www.w3.org/2000/svg" viewBox="0 0 512 512" fill="currentColor">
  <path d="M233.73,6.7C107.96,6.7,6,108.66,6,234.44s101.96,227.73,227.73,227.73,227.72-101.96,227.72-227.73S359.49,6.7,233.73,6.7M233.73,407.23c-95.43,0-172.8-77.37-172.8-172.8S138.3,61.64,233.73,61.64s172.8,77.37,172.8,172.8-77.37,172.8-172.8,172.8"/>
  <path d="M125.63,225.65v70.79c10.47,17.98,25.25,33.08,43,43.94v-114.72h-43ZM210.9,165.97v190.58c7.31,1.35,14.8,2.16,22.48,2.16,7.01,0,13.84-.74,20.55-1.86v-190.88h-43.03ZM300.16,255.06v84.06c18.04-11.47,32.84-27.35,43.02-46.15v-37.91h-43.02ZM397.61,374.71l-23.59,23.61c-4.16,4.17-4.16,10.92,0,15.09l89.49,89.46c4.17,4.16,10.92,4.16,15.09,0l23.59-23.58c4.13-4.18,4.13-10.9,0-15.08l-89.5-89.5c-4.17-4.14-10.91-4.14-15.08,0"/>
</svg>
