<?xml version="1.0" encoding="UTF-8"?>
<svg xmlns="http://www.w3.org/2000/svg" viewBox="0 0 512 512" fill="currentColor">
  <path d="M1,7.11C1,4.06,3.55,1,7.11,1h44.84c3.06,0,6.11,2.55,6.11,6.11v497.77c0,3.06-2.55,6.11-6.11,6.11H7.11c-3.06,0-6.11-2.55-6.11-6.11V7.11Z"/>
  <path d="M114.11,7.11c0-3.06,2.55-6.11,6.11-6.11h44.84c3.06,0,6.11,2.55,6.11,6.11v497.77c0,3.06-2.55,6.11-6.11,6.11h-44.84c-3.06,0-6.11-2.55-6.11-6.11V7.11Z"/>
  <path d="M227.21,7.11c0-3.06,2.55-6.11,6.11-6.11h44.84c3.06,0,6.11,2.55,6.11,6.11v497.77c0,3.06-2.55,6.11-6.11,6.11h-44.84c-3.06,0-6.11-2.55-6.11-6.11V7.11Z"/>
  <path d="M340.32,7.11c0-3.06,2.55-6.11,6.11-6.11h44.84c3.06,0,6.11,2.55,6.11,6.11v497.77c0,3.06-2.55,6.11-6.11,6.11h-44.84c-3.06,0-6.11-2.55-6.11-6.11V7.11Z"/>
  <path d="M453.94,205.31c0-3.06,2.55-6.11,6.11-6.11h44.84c3.06,0,6.11,2.55,6.11,6.11v101.39c0,3.06-2.55,6.11-6.11,6.11h-44.84c-3.06,0-6.11-2.55-6.11-6.11v-101.39Z"/>
</svg>
