<?xml version="1.0" encoding="UTF-8"?>
<svg id="a" data-name="Layer 1" xmlns="http://www.w3.org/2000/svg" xmlns:xlink="http://www.w3.org/1999/xlink" viewBox="0 0 466 512">
  <path d="M231.87,512c37.55,0,71.51-29.71,95.79-77.56,59.85,6.25,108.15-7.8,128.47-42.79,19.89-34.32,8.8-81.77-24.91-129.28,32.83-46.99,43.46-93.78,23.79-127.7-19.43-33.52-64.57-47.82-120.91-43.49C309.6,35.41,272.9,0,231.87,0s-78.06,35.75-102.58,91.98c-55.13-3.69-99.2,10.67-118.33,43.67-19.52,33.68-9.17,80.06,23.12,126.72C.91,309.55-9.87,356.6,9.87,390.64c20.01,34.5,67.22,48.61,125.85,43.06,24.3,48.27,58.39,78.29,96.15,78.29ZM160.57,430.29c20.68,39.68,48.43,63.97,78.95,63.97s57.87-23.01,79.56-60.83c-27.44-3.69-57.05-11.46-87.35-23.28-24.46,9.36-48.43,16.09-71.15,20.14ZM198.18,395.49c-16.54,5.33-32.65,9.36-48,12.04-5.91-14.78-11-31.02-15.08-48.46,10.11,6.86,20.68,13.5,31.65,19.81,10.45,6,20.92,11.55,31.4,16.61h.03ZM231.84,383.02c18.09-7.56,36.46-16.58,54.7-27.09,26.44-15.21,50.35-32.12,71.06-49.86,1.83-16.15,2.8-32.88,2.8-50.07,0-21.97-1.58-43.28-4.54-63.48-17.45-14.14-36.88-27.58-58.05-39.74-22.02-12.65-44.28-23.04-66.12-31.15-20.98,7.95-42.37,18.01-63.5,30.17-13.28,7.65-25.92,15.79-37.77,24.29-4.32,24.99-6.67,51.87-6.67,79.91,0,23.31,1.61,45.87,4.66,67.17,15.65,11.89,32.77,23.22,51.08,33.77,17.45,10.03,35.03,18.74,52.36,26.09ZM265.37,395.67c11.3-5.36,22.6-11.31,33.87-17.77,18.79-10.82,36.34-22.52,52.48-34.8-5.15,24.84-12.37,47.66-21.2,67.6-20.41-2.47-42.37-7.5-65.15-15.02ZM358.51,337.8c-4.72,26.85-11.7,51.69-20.5,73.72,50.28,4.66,89.97-6.83,106.51-35.32,15.9-27.46,7.98-66.62-18.12-107.15-17.48,23.56-40.48,46.99-67.89,68.75ZM415.92,242.62c27.11-39.68,35.85-78.08,19.86-105.69-15.5-26.73-51.96-39.53-98.44-38.1,10.78,26.54,18.91,57.3,23.57,90.73,21.2,16.94,39.69,34.86,54.98,53.06h.03ZM329.58,99.2c11.12,24.53,19.77,53.52,25.04,85.39-16.6-12.8-34.78-24.99-54.28-36.21-20.25-11.64-40.72-21.55-60.88-29.65,31.8-11.34,62.53-17.83,90.09-19.57l.03.03ZM326.14,91.92c-29.36,3.11-61.49,11.06-94.42,23.83-26.74-10.15-52.9-17.16-77.45-20.97,21.17-47.36,51.53-77.01,85.25-77.01s64.2,28.5,86.62,74.15ZM223.92,118.83c-25.25-8.81-49.8-14.57-72.58-17.28-8.22,19.87-14.89,42.54-19.61,67.23,10.78-7.44,22.08-14.57,33.9-21.36,19.4-11.15,38.95-20.69,58.3-28.59ZM102.7,190.48c4.6-33.4,12.64-64.12,23.33-90.7-45.23-.85-80.62,11.95-95.82,38.16-15.87,27.37-7.4,65.28,19.13,104.59,14.89-17.83,32.83-35.41,53.36-52.05ZM38.89,269.1c17.06,23.16,39.44,46.26,66.18,67.78,4.66,26.88,11.6,51.78,20.35,73.87-49.1,4.05-87.72-7.53-103.98-35.54-15.78-27.22-8.13-65.95,17.42-106.09l.03-.03ZM53.51,248.5c13.22-16.91,29.39-33.8,48.15-49.89-2.19,18.44-3.38,37.67-3.38,57.39,0,14.96.67,29.62,1.95,43.89-18.61-16.79-34.39-34.19-46.75-51.41l.03.03ZM411.75,248.53c-12.76,17.58-29.06,35.35-48.34,52.45,1.34-14.6,2.07-29.65,2.07-44.98,0-20.08-1.22-39.65-3.5-58.39,19.4,16.37,36.15,33.62,49.77,50.93Z" style="fill: black; fill-rule: evenodd;"/>
</svg>
