<?xml version="1.0" encoding="UTF-8"?>
<svg id="a" xmlns="http://www.w3.org/2000/svg" viewBox="0 0 528 512">
  <path d="M234.05,136.86c3.99-3.44,9.68-4.11,14.36-1.66,4.67,2.43,7.38,7.47,6.82,12.7s-4.28,9.59-9.36,10.98c-5.78,1.59-11.9-1.02-14.73-6.3-2.83-5.29-1.62-11.8,2.91-15.72h0Z"/>
  <path d="M75.33,367.63c-2.95-17.66,28.38-33.92,44.43-41.21v.64c-4.79,13.41-12.61,25.55-22.86,35.45-4.75,5.12-17.46,16-21.57,5.12h0ZM165.48,324.37c8.6,4.74,39.68-8.45,50.34-36.22v-.13c2.79-1.04,5.28-1.93,7.68-2.8,5.9-2.12,11.23-4.04,18.9-7.31,40.19-16.64,85.26-39.42,109.92-68.47,8.6-10.24,25.94-38.91,6.29-45.69,6.95-7.63,9.98-18.01,8.22-28.16l147.67-106.36c10.02-7.3,16.69-20.48,11.94-25.6-4.75-5.12-15.41-5.12-29.53,1.92l-171.68,87.67-1.03-1.02-9.12-8.58c-6.2-4.84-12.83-9.13-19.78-12.8-37.73-16.98-80.55-18.97-119.68-5.5-44.55,13.59-84.71,38.61-116.47,72.57-14.16,15.01-26.26,31.84-35.95,50.04C10.94,210.74,3.35,235.76.86,261.53c-4.62,50.17,9.37,115.06,44.69,151.92,8.35,9.47,17.34,18.43,26.58,27.13l1.59,1.5c6.54,6.16,13.13,12.36,18.95,19.1,11.78,14.01,20.2,30.51,24.65,48.25l.77,2.56,1.41-.9c35.83-25.73,48.67-58.75,22.99-97.14,14.22-12.16,22.41-29.9,22.41-48.57s-8.19-36.41-22.41-48.57c2.58-1.05,5.86-2.45,9.26-3.9h0c4.88-2.08,10.01-4.27,13.71-5.7,0,2.04-.5,4.4-1,6.73-.96,4.53-1.89,8.9,1,10.43h.02ZM346.15,173.6c7.7-7.68,15.41.26,4.37,14.08v-.77c-27.34,39.39-72.96,62-142.92,88.47-4.92,16.54-13.13,31.22-31.59,36.7,1.5-4.36,3.23-14.6,2.63-25.56-75.42,29.43-121.07,50.56-114.85,81.11,10.53,32.77,55.6-1.41,68.44-47.61,14.92,10.25,23.31,27.56,22.1,45.56-1.22,18.02-11.85,34.07-28.01,42.24,22.21,26.11,27.35,55.93-3.47,82.3-11.08-32.06-28.17-47.62-46.25-64.08-7.69-7-15.55-14.16-23.22-22.83-33.68-39.88-48.92-92.07-41.99-143.73C32.42,94.18,252.3,11.62,322.93,106.34L504.09,8.75c6.42-2.94,13.87-4.86,16.56-1.28,2.7,3.58-3.72,11.01-8.6,14.46l-160.12,111.09c4.28,4.18,6.21,7.95,3.34,12.03-20.62,30.56-59.22,43.62-94.25,31.87-5.14,4.48-3.72,9.09,26.45,14.08,21.24,3.92,43.06-2.56,58.68-17.41h0Z"/>
  <path d="M57.1,165.54c2.67-.58,5.44.14,7.49,1.93,2.07,1.79,3.13,4.44,2.91,7.15.08,6.34-4.51,11.77-10.79,12.8-2.62.51-5.34-.2-7.36-1.96-2-1.75-3.09-4.34-2.91-7,.21-6.19,4.58-11.45,10.66-12.8"/>
  <path d="M92.16,127.01c2.35-.5,4.8.15,6.6,1.74,1.8,1.59,2.74,3.93,2.52,6.32-.42,5.43-4.24,10-9.5,11.39-2.35.5-4.8-.15-6.6-1.74-1.8-1.59-2.74-3.93-2.52-6.32.41-5.43,4.22-10,9.5-11.39Z"/>
  <path d="M198.47,75.95c2.38.09,4.56,1.28,5.92,3.2,1.36,1.95,1.75,4.4,1.02,6.66-1.45,5.23-6.24,8.84-11.69,8.83-2.4-.06-4.62-1.23-6.03-3.16s-1.84-4.4-1.15-6.69c1.46-5.29,6.32-8.91,11.81-8.83"/>
  <path d="M231.09,70.69c1.99.32,3.72,1.57,4.66,3.35.94,1.79.96,3.92.09,5.73-1.94,4.13-6.39,6.48-10.91,5.76-1.89-.36-3.52-1.54-4.44-3.23s-1.04-3.7-.31-5.48c1.82-4.27,6.3-6.8,10.92-6.14h0Z"/>
  <path d="M92.54,151.2c1.76-.37,3.58.1,4.93,1.29,1.34,1.19,2.03,2.94,1.87,4.72-.1,4.08-3.04,7.54-7.06,8.32-1.73.36-3.53-.1-4.87-1.25-1.34-1.16-2.05-2.88-1.94-4.63.18-4.08,3.07-7.54,7.06-8.45h.01Z"/>
  <path d="M37.84,196.51c1.81-.42,3.71.05,5.1,1.27,1.4,1.22,2.13,3.03,1.96,4.88-.14,4.24-3.16,7.82-7.32,8.7-1.89.37-3.84-.17-5.25-1.46-1.43-1.28-2.14-3.16-1.94-5.07.15-4.27,3.24-7.87,7.45-8.7"/>
  <path d="M361.69,85.54l-8.09,4.1c.95,11.6,7.32,22.08,17.21,28.29-6.25-9.62-9.43-20.91-9.12-32.38h0ZM404.19,62.25l-7.06,3.84c1.08,9.6,6.39,18.24,14.51,23.55-4.58-8.4-6.92-17.83-6.81-27.39h-.64ZM446.82,39.21l-5.39,2.94c0,6.91,5.01,17.28,10.66,18.69-3.69-6.59-5.29-14.13-4.62-21.63h-.65ZM487.91,17.2l-4.75,2.56c1.15,5.64,4.19,10.74,8.6,14.46-2.45-5.35-3.76-11.15-3.85-17.02Z"/>
  <path d="M150.28,248.52c30.98,14.21,22.64,59.69,17.87,72.31,59.55-12.03,43.95-87.91,72.27-108.66-33.58-3.33-97.98,23.16-90.14,36.34" style="fill: none; fill-rule: evenodd; stroke: currentColor; stroke-linecap: round; stroke-linejoin: round; stroke-width: 13px;"/>
</svg>
