<?xml version="1.0" encoding="UTF-8"?>
<svg xmlns="http://www.w3.org/2000/svg" viewBox="0 0 468 512" fill="currentColor">
  <path d="M468,207.66l-1.09-1.7c-6.21-9.65-10.44-15.59-15.55-21.9-14.89-18.41-32.92-33.43-55.01-45.79-30.35-16.99-69.73-30.19-119.51-40.08-9.38-1.86-29.88-5.38-46.62-7.99l-1.68-2.95c-9.15-16.13-19.25-36.1-25.12-49.61-4.54-10.46-8.91-22.51-11.33-31.24-1.44-5.18-1.59-5.52-2.39-5.61-1.72-.2-29.25,9.72-46.95,16.9-23.97,9.74-42.59,19.07-54.07,27.12-3.74,2.62-8.31,7.07-9.93,9.53-.01-.04-.03-.08-.04-.12,0,0-.2.33-.4.91-.02.04-.05.1-.07.14-.29.77-.43,1.68-.44,2.61l.13.13c.05.86.24,1.85.67,2.93.99,2.48,3.98,5.47,7.27,8.63,0,0,34.46,33.6,38.69,38.48,19.1,22.03,27.39,43.72,28.16,73.66.49,19.21-3.22,36.11-12.22,55.74-16.14,35.19-50.14,73.99-102.66,117.13l.65-.22c-.33.26-.67.54-.98.79-6.27,4.99-15.59,14.24-20.35,20.17-7.09,8.82-12.63,18.22-15.01,25.45-4.29,13.01-2.2,26.19,6.07,38.35,10.56,15.53,31.58,31.32,56.04,42.06,12.47,5.48,33.52,12.55,49.3,16.53,26.3,6.64,77.13,13.85,105.12,14.92,5.68.22,13.24.2,13.58-.03.61-.41,4.97-8.66,10.03-18.98,17.21-35.13,29.65-68.06,36.35-96.19,4.06-17.03,7.22-39.75,9.27-66.68.57-7.54.78-32.69.34-41.25-.72-13.92-1.95-25.26-3.91-36.39-.14-.8-.24-1.55-.28-2.13,62.3-18.51,131.19-35.25,176.85-42.24l7.08-1.08ZM297.66,114.89c.72,0,14.84,3.85,22.15,6.03,18.19,5.44,39.19,13.11,52.8,19.29l5.67,2.56-4,.92c-33.32,7.65-61.88,16.48-89.38,27.64-2.28.93-4.27,1.69-4.41,1.69s.59-1.77,1.61-3.92c8.27-17.56,13.61-35.99,14.99-51.63.12-1.42.38-2.58.57-2.58ZM290.06,124.2c-2.82,11.54-10.29,28.68-19.5,44.79-1.63,2.84-3.08,5.2-3.24,5.26-.17.05-2.27-1.05-4.66-2.45-9.01-5.27-19.22-10.25-30.43-14.87-3.13-1.29-5.79-2.44-5.92-2.56-.51-.48,24.4-16.96,37.6-24.88,10.56-6.34,27.57-15.8,27.86-15.51.25.25-.8,6.53-1.7,10.24ZM182.27,348.47c-14.66,5.56-30.63,11.12-48.96,17.05-6.98,2.26-12.9,4.17-13.13,4.25-.7.26-.48-.17,1.56-3.36,9.11-14.22,22.91-42.02,30.62-61.69,1.34-3.41,2.61-6.83,2.84-7.59.08-.26.15-.47.24-.66,1.06-.44,2.14-.89,3.22-1.34.24.46.65,1.47,1.05,2.55,2.47,6.71,8.02,16.68,12.85,23.05,5.27,6.96,12.14,14.38,17.88,19.3,1.84,1.58,3.57,3.06,3.81,3.28.49.44.66.36-11.99,5.16ZM192.85,355.25c.05.05-.55,1.68-1.35,3.6-6.76,16.34-15.62,34.16-26.91,54.18-2.87,5.09-5.3,9.26-5.39,9.24-.09,0-2.43-1.39-5.19-3.08-16.45-10.06-31-22.45-40.55-34.5l-1.36-1.7,7.09-1.94c25.29-6.93,46.75-14.34,68.07-23.52,3.02-1.3,5.53-2.33,5.58-2.27ZM157.64,151.23c-.31-2.16-.5-4-.42-4.07.22-.22,10.98,2.29,16.85,3.94,8.81,2.47,27.57,8.75,27.59,9.23,0,.09-2.07,1.9-4.59,4.01-10.14,8.48-19.92,17.35-31.65,28.66-3.47,3.35-6.43,6.08-6.57,6.08s-.21-.49-.13-1.09c1.76-13.02,1.39-29.74-1.07-46.77ZM160.53,133.81c0-.48,9.59-10.06,13.71-13.71,7.87-6.96,29.06-23.43,29.81-23.18.44.15,1.28,2.75,2.76,8.61,2.84,11.22,4.16,23.82,3.72,35.48-.12,3.24-.33,6.26-.46,6.7l-.24.81-4.01-1.3c-8.26-2.64-21.76-6.61-33.33-9.81-6.57-1.82-11.96-3.44-11.96-3.6ZM183.98,186.72c7.31-6.18,22.7-18.48,22.88-18.3.21.21-2.4,9.8-4.06,14.92-3.17,9.82-8.54,22.17-13.7,31.47-1.21,2.18-3.07,5.38-4.12,7.11l-1.91,3.13-4.35-4.2c-5.05-4.9-9.17-7.94-14.43-10.64-2.07-1.06-3.75-2.05-3.75-2.19-.01-.64,13.22-12.67,23.43-21.3ZM180.29,242.33c.05-.03.1-.04.15-.05.35-.04.86.61,2.96,3.75,4.42,6.6,7.81,15.41,8.68,22.58l.18,1.54-10.59,4.11c-19.02,7.38-36.53,14.65-48.36,20.07-3.31,1.51-9.15,4.3-12.97,6.21-3.82,1.9-6.93,3.4-6.93,3.32s2.4-1.88,5.32-4.01c23.21-16.84,43.23-35.28,58.31-53.72,1.61-1.97,3.08-3.68,3.26-3.8ZM185.21,322.48c-6.03-6.99-10.79-13.93-14.27-20.76-1.47-2.89-3.66-8.13-4.2-9.91,10.99-4.47,22.43-8.94,34.41-13.44,2.59-.97,5.25-1.95,7.95-2.93.28,3.18-.04,17.66-.55,21.92-1.36,11.33-3.58,21.82-7.13,33.74-.85,2.85-1.64,5.31-1.77,5.45-.31.36-10.92-9.97-14.44-14.06ZM197.63,267.86c-.2.07-.32-1.06-.32-2.84-.02-9.38-2.39-19.41-6.59-27.9-1.77-3.59-2.07-4.45-1.7-4.79,1.46-1.32,24.05-14.2,38.3-21.83,9.78-5.24,24.81-12.87,24.99-12.68.18.19-10.5,15.14-16.85,23.59-7.59,10.1-21.12,26.99-30.43,37.99-3.89,4.59-7.22,8.41-7.4,8.47ZM245.49,189.2c-14.57,7.29-27.05,14.17-40.08,22.13-3.72,2.27-6.83,4.14-6.93,4.14-.32,0-.2-.28,1.88-4.09,6.94-12.7,12.54-27.87,15.76-42.69.29-1.32.63-2.13.88-2.08,1.08.24,11.15,4.92,18.74,8.73,6.95,3.48,17.47,9.08,18,9.57.06.06-3.64,2-8.25,4.3ZM255.96,105.74c10.79,2.07,26.41,5.33,27.34,5.73.46.19-1.16,1.07-6.34,3.4-20.51,9.24-35.69,17.49-50.79,27.59-3.98,2.66-7.28,4.83-7.35,4.83s-.13-2.22-.13-4.93c0-14.72-2.95-29.57-8.34-42.13-.58-1.35-1.02-2.51-.96-2.56.24-.22,32.1,5.29,46.57,8.06ZM203.5,60.45c.33.03.67.69,1.64,2.81,2.65,5.79,10.88,21.49,12.87,24.53.17.25.36.44.37.57-16.99-2.67-31.09-4.93-44.32-7.13.11-.15.82-.61,1.71-1.11,8.13-4.52,16.34-10.21,23.64-16.37,1.75-1.47,3.43-2.87,3.73-3.13.12-.1.25-.17.35-.16ZM146.45,22.26c10.7-4.98,39.84-17.1,41.97-17.49.07-.01.1-.01.11,0,.05.06.37,2.23.68,4.8,1.32,10.83,3.75,21.34,7.55,32.65,2.86,8.52,2.9,8.02-.5,7.07-7.91-2.21-43.37-8.29-69.02-11.84-4.13-.57-7.57-1.08-7.63-1.13-.32-.33,18.5-10.18,26.84-14.07ZM116.69,40.49c16.47,5.6,57.74,13.48,80.56,15.38,2.58.21,4.74.44,4.8.5.07.06-2.12,1.23-4.85,2.59-11.01,5.51-23.12,12.23-31.5,17.47-1.94,1.21-3.74,2.23-4.56,2.6-2.52-.43-5.04-.86-7.56-1.29l-7.4-7.18c-13.67-13.23-24.35-23.46-28.48-27.33l-4.01-3.76,3,1.02ZM91.79,64.29v-.88c.07-5.23,6.66-12.94,17.85-20.83l.99-.68,10.91,13.61c6,7.48,12.02,14.91,13.35,16.51,1.13,1.35,2.04,2.52,2.25,2.88-7.59-1.32-16.01-2.82-22.28-4.17-.59-.13-1.15-.26-1.68-.38-2.18-.5-4.02-.93-5.65-1.32-4.26-1.06-9.15-2.39-13.32-3.83-.77-.3-1.58-.6-2.41-.91ZM144.36,124.82c-.07.07-.94-1.27-1.91-2.98-9.06-15.93-23.41-32.12-40-45.16-2.07-1.62-3.75-3-3.75-3.06.05-.04,1.34.36,2.92.89,2.91.99,6.75,2.14,11.21,3.39,3.13.88,6.57,1.79,10.22,2.73,4.66,1.19,8.52,2.22,8.57,2.27.52.58,8.35,25.57,11.02,35.15,1.02,3.66,1.79,6.71,1.72,6.78ZM152.19,125.66c-2.82-10.79-8.64-26.73-13.86-37.94-.84-1.8-1.52-3.4-1.52-3.54,0-.02.02-.03.08-.03.4-.03,2.12.26,4.17.71,13.21,2.92,36.81,7.47,51.98,10.02,2.52.43,4.61.88,4.61,1.02s-.94.74-2.09,1.32c-2.55,1.28-12.85,7.44-16.29,9.75-8.6,5.76-16.34,11.92-21.97,17.52-2.26,2.25-4.16,4.09-4.22,4.09-.06,0-.46-1.31-.88-2.92ZM135.85,259.86c5.12-7.83,7.7-12.26,10.39-17.93,2.39-5.03,4.77-11.01,6.47-16.2.71-2.16,1.45-3.92,1.64-3.92s2,.91,4.02,2.03c4.95,2.74,9.39,5.75,13.31,9.02.15.13-1.88,1.78-4.51,3.68-7.35,5.3-18.54,13.74-25.02,18.9-6.84,5.44-7.07,5.61-6.3,4.43ZM109.26,294.25c5.08-5.53,8.97-10.13,13.39-15.86,2.91-3.78,3.46-4.31,7.73-7.39,11.48-8.28,37.72-26.05,38.02-25.74.31.31-8.57,10.34-14.54,16.43-14.96,15.25-29.78,27.22-48.15,38.87-2.3,1.45-4.4,2.78-4.67,2.93-.51.29.16-.46,8.23-9.25ZM97.24,326.91c.53-2.56.77-3.74,1.22-4.45,13.9-6.94,28.52-13.73,44.07-20.48-.9,2.24-4.14,8.99-7.35,15.25-7.5,14.63-15.78,29.03-26.76,46.6-1.9,3.04-3.64,5.81-3.88,6.15-.39.56-.55.38-1.75-2.01-2.63-5.23-4.83-11.83-5.97-17.96-1.13-6.07-.93-16.58.42-23.1ZM14.96,399.53c1.77-11.37,10.44-26.3,22.57-38.83,6.97-7.2,12.75-11.87,21.28-17.06,3.76-2.15,8.4-4.73,14.31-7.96,3.69-2.02,7.45-4.02,11.23-6.01.1.28-.04,1.15-.41,3.32-.34,1.98-.73,5.74-.88,8.32-.62,11.34,1.22,19.7,6.85,31.15,1.57,3.18,2.79,5.83,2.72,5.89-.56.47-51.85,15.48-67.98,19.89-4.78,1.31-8.96,2.46-9.3,2.57-.56.16-.61.04-.4-1.27ZM46.33,454.64l-3.47-2.92c-4.07-3.42-11.21-10.68-14.44-14.71-6.66-8.3-11.17-17.03-12.95-25.05-.82-3.7-.85-5.58-.06-5.82,1.13-.34,21.84-5.22,41.27-9.72,10.79-2.5,23.26-5.43,27.73-6.51,4.47-1.07,8.17-1.92,8.21-1.88.19.18-9.69,14.31-23.48,33.61-4.8,6.71-10.43,14.62-12.51,17.57-2.09,2.95-5.24,7.63-7.03,10.39l-3.26,5.03ZM51.65,458.69l-1.43-1.02,2.24-3.23c7.27-10.52,16.4-22.1,36.38-46.13l13.7-16.48,2.5,2.79c11.17,12.44,22.54,21.72,36.4,29.73,2.45,1.42,4.31,2.64,4.15,2.74-.58.36-47.94,17.19-69.85,24.82-12.36,4.3-22.5,7.81-22.56,7.8-.05-.01-.75-.47-1.54-1.02ZM117.91,489.32l-1.15-.31c-2.78-.75-22.39-7.67-27.57-9.73-6.42-2.55-13.11-5.63-18.04-8.29-6.17-3.33-13.98-8.27-13.37-8.47.17-.05,10.79-2.96,23.56-6.44,33.99-9.26,52.79-14.58,65.12-18.43,2.3-.72,4.23-1.26,4.27-1.22.1.1-5.4,8.91-15.07,24.14-4.09,6.43-8.72,13.76-10.31,16.27-1.59,2.52-3.91,6.34-5.16,8.52l-2.27,3.96ZM124.11,490.75c0-.17,1.86-2.52,4.12-5.22,11.16-13.34,22.24-28.24,31.5-42.34,2.53-3.85,4.65-7.07,4.71-7.14s3.52,1.16,7.71,2.73c10.1,3.78,18.03,6.24,28.76,8.92,13.17,3.3,32.22,6.59,43.49,7.54,1.73.15,2.61.34,2.34.52-.53.33-11.94,4.15-20.34,6.78-13.32,4.19-54.04,16.21-87.24,25.76-6.16,1.77-11.42,3.27-11.7,3.33-.74.16-3.34-.53-3.34-.88ZM230.51,505.75c-1.03,2.47-1.41,3.07-1.95,3.05-1.3-.05-19.55-2.6-30.59-4.28-19.33-2.94-51.71-8.59-59.88-10.45l-1.9-.43,11.59-2.61c24.84-5.59,36.76-8.59,48.86-12.29,15.26-4.67,30.37-10.49,45.63-17.58,2.41-1.12,4.47-1.98,4.98-2.09.07-.02.11-.02.11,0,.32.81-12.26,35.64-16.86,46.69ZM262.34,411.26c-2.74,9.68-5.03,17.25-9.29,30.67-1.87,5.93-3.49,10.76-3.58,10.74-.1-.03-.55-.11-1.01-.2-23.04-4.17-43.68-9.98-63.01-17.74-5.41-2.18-13.22-5.63-13.63-6.04-.14-.14,4.53-2.34,10.37-4.88,35.31-15.4,71.89-32.94,84.4-40.46,1.51-.9,2.62-1.43,2.87-1.37.04,0,.05.03.05.06,0,1.72-3.92,17.67-7.17,29.22ZM268.13,378.32c-10.3,5.71-44.21,19.81-78.84,32.8-5.06,1.9-9.99,3.75-10.96,4.13-.96.38-1.75.64-1.75.57s1.43-2.82,3.18-6.1c9.72-18.17,19.43-40.25,24.41-55.57.51-1.57.96-2.88,1.01-2.94.05-.06,1.95.96,4.22,2.27,16.57,9.58,39.68,18.56,59.39,23.07l1.78.4-2.44,1.36ZM273.43,300.52c2.88,1.26,3.21.77-3.42,5.28-14.14,9.59-31.72,19.03-53.29,28.61-3.76,1.67-6.95,3.03-7.08,3.03s.29-1.9.93-4.25c5.23-19.33,8.18-38.84,8.26-54.49.02-3.83.03-5.77.13-6.78.7-.24,1.39-.49,2.1-.73,1.07.53,2.76,1.54,5.42,3.2,16.01,10.02,37.68,22.08,46.96,26.13ZM229.26,268.35c13.58-4.61,28.09-9.27,43.13-13.85,1.11,4.51,3.11,24.6,3.68,37.92.14,3.21.11,5.26-.08,5.26-.62,0-13.14-7.36-22.02-12.93-7.66-4.81-22.1-14.39-24.7-16.4ZM276.54,309.93c-.02,17.29-1.86,40.97-4.54,58.25-.47,3.03-.88,5.53-.91,5.57-.03.03-2.22-.61-4.86-1.43-11.64-3.61-24.26-9.01-35.65-15.25-7.54-4.13-18.45-10.82-18.14-11.13.08-.08,3.3-1.79,7.14-3.78,15.23-7.9,29.77-16.42,42.42-24.87,4.74-3.17,11.84-8.3,13.42-9.68l1.12-.97v3.29h0ZM308.38,231.82c-35.52,9.85-62.96,18.62-94.98,30.38-3.55,1.31-6.62,2.39-6.83,2.39-.44,0-.88.4,7.11-6.95,20.48-18.84,38.57-39.6,52.09-59.79l2.73-4.09,3.78,2.45c8.67,5.63,18.95,13.2,26.78,19.73,4.39,3.65,12.92,11.29,14.67,13.14l.94.99-6.28,1.75ZM322.47,227.83c-.08,0-1.07-1.4-2.21-3.1-8.71-13-19.04-24.43-31.37-34.68-2.3-1.91-4.9-4.01-5.76-4.66-.87-.64-1.57-1.24-1.58-1.33,0-.21,13.16-5.86,23.21-9.94,17.49-7.12,41.4-15.64,59.29-21.12,9.44-2.89,19.46-5.77,19.61-5.63.16.16-4.99,8.21-8.2,12.8-4.68,6.7-11.46,15.49-26.9,34.91-8.12,10.2-17.27,21.74-20.35,25.65-3.08,3.9-5.67,7.11-5.74,7.11ZM452.18,205.23c-32.66,2.46-74.41,9.4-114.6,19.06-2.73.65-5.09,1.2-5.24,1.2s2.84-3,6.64-6.65c23.61-22.68,34.37-37.01,47.04-62.6,1.89-3.81,3.49-7.1,3.55-7.3,0-.01.02-.01.04-.02.28-.06,2.16.85,4.41,2.14,18.85,10.79,37.31,24.65,51.84,38.9,4.13,4.05,14.24,14.56,14.08,14.65-.04.02-3.53.3-7.75.62Z"/>
</svg>