<svg xmlns="http://www.w3.org/2000/svg" viewBox="0 0 412 512">
    <path d="M161.94,312.24L161.94,349.19L175.73,350.16L191.10,350.80L207.87,351.00L221.07,350.79L247.52,349.39L261.43,348.10L276.43,346.25L290.14,344.10L303.97,341.46L317.77,338.28L329.55,335.08L341.83,331.17L351.52,327.59L362.00,323.09L370.52,318.81L377.75,314.59L385.73,309.00L390.69,304.76L395.81,299.26L399.12,294.53L401.62,289.19L402.82,283.86L402.70,278.27L401.39,273.21L398.86,268.06L395.35,263.18L390.72,258.29L384.26,252.89L376.90,247.89L368.65,243.21L360.74,239.34L351.31,235.34L340.72,231.45L329.70,227.97L317.05,224.54L304.69,221.70L292.28,219.27L278.17,217.00L263.95,215.18L263.95,269.26L263.46,275.44L261.58,283.23L258.66,289.99L254.71,296.16L249.88,301.55L244.26,306.10L237.87,309.75L230.95,312.32L224.50,313.63L219.35,314.00L194.05,313.88L175.40,313.16L161.94,312.24Z" fill="currentColor"/>
    <path d="M402.95,312.31L397.21,317.70L391.28,322.33L383.96,327.21L375.76,331.88L365.81,336.74L356.70,340.59L346.96,344.21L335.42,347.94L325.12,350.85L312.39,353.95L299.06,356.72L285.88,359.00L258.99,362.43L230.64,364.45L204.03,365.00L177.01,364.25L149.09,362.03L125.07,358.85L111.75,356.51L97.93,353.60L85.17,350.42L74.68,347.40L64.21,343.96L55.26,340.61L45.51,336.48L36.37,332.02L32.82,330.76L29.93,330.16L26.72,329.94L24.12,330.14L21.38,330.78L16.81,332.99L14.73,334.67L12.89,336.68L10.34,341.14L9.05,346.43L8.95,434.64L9.27,438.26L10.19,441.92L12.07,446.26L14.87,450.69L18.93,455.50L23.99,460.23L29.79,464.68L35.99,468.72L43.42,472.90L52.21,477.15L60.29,480.55L69.95,484.13L81.02,487.69L92.07,490.76L113.93,495.67L138.26,499.63L165.02,502.44L191.49,503.81L217.96,503.87L243.74,502.68L269.11,500.21L293.78,496.45L316.57,491.58L327.27,488.74L337.89,485.49L350.05,481.16L361.56,476.29L371.38,471.33L380.42,465.84L387.62,460.47L393.88,454.52L398.56,448.45L401.37,442.86L402.64,438.26L402.95,434.66L402.95,312.31Z" fill="currentColor"/>
    <path d="M9.03,79.46L9.85,83.84L11.27,87.64L13.51,91.71L16.52,95.80L20.20,99.78L25.10,104.14L30.83,108.40L36.88,112.26L50.38,119.31L66.64,125.96L85.16,131.89L104.09,136.64L115.43,138.96L129.87,141.43L144.79,143.46L158.69,144.91L183.92,146.56L199.92,146.97L220.53,147.03L242.04,148.18L265.81,150.30L288.36,153.41L313.15,158.22L323.74,160.80L336.46,164.38L346.50,167.64L356.88,171.49L365.78,175.25L376.50,180.36L380.41,181.55L383.29,182.03L386.32,182.14L389.40,181.72L392.49,180.65L395.12,179.06L398.00,176.36L400.09,173.45L401.62,170.36L402.57,167.27L402.95,164.10L402.93,76.47L402.56,73.37L401.69,70.02L400.39,66.85L398.61,63.64L396.35,60.41L393.32,56.88L386.22,50.39L377.62,44.33L366.44,38.06L353.44,32.19L339.37,26.99L323.86,22.31L309.13,18.66L287.08,14.38L261.96,10.96L237.01,8.89L210.96,8.02L182.95,8.48L156.85,10.26L134.22,12.93L121.99,14.86L108.83,17.35L88.04,22.31L78.33,25.13L67.54,28.72L58.46,32.19L50.08,35.83L42.83,39.42L35.47,43.59L29.59,47.46L23.24,52.42L18.58,56.88L14.98,61.16L12.43,65.07L10.21,70.02L9.09,75.04L9.03,79.46Z" fill="currentColor"/>
    <path d="M8.95,108.31L9.12,233.25L9.83,236.77L10.97,239.96L14.29,245.87L19.65,252.23L26.61,258.34L35.26,264.27L46.21,270.31L59.23,276.13L72.24,280.91L88.13,285.71L103.49,289.50L119.88,292.77L137.63,295.55L157.37,297.79L175.60,299.15L199.12,299.96L221.32,299.89L227.13,298.86L233.46,296.31L239.03,292.48L243.61,287.62L245.95,284.06L247.98,279.71L249.31,275.08L249.90,270.53L249.91,190.61L248.76,183.66L246.19,177.36L242.60,172.12L237.51,167.29L234.49,165.27L230.75,163.40L226.92,162.10L222.85,161.27L180.96,160.44L165.50,159.52L150.55,158.19L133.18,156.06L117.51,153.57L103.14,150.76L87.93,147.15L74.47,143.34L61.92,139.14L51.80,135.21L40.83,130.27L30.95,125.01L22.87,119.92L15.25,114.17L8.95,108.31Z" fill="currentColor"/>
</svg>
