<?xml version="1.0" encoding="UTF-8"?>
<svg xmlns="http://www.w3.org/2000/svg" viewBox="0 0 522 512" fill="currentColor">
  <path d="M480.82,396c-28.4-.71-50.41,2.13-68.87,9.93-5.33,2.13-13.85,2.13-14.56,8.87,2.84,2.84,3.2,7.45,5.68,11.35,4.26,7.09,11.72,16.67,18.46,21.64,7.45,5.67,14.91,11.35,22.72,16.32,13.85,8.51,29.47,13.48,42.96,21.99,7.81,4.96,15.62,11.35,23.43,16.67,3.91,2.83,6.39,7.45,11.36,9.22v-1.06c-2.49-3.2-3.2-7.81-5.68-11.35-3.55-3.55-7.1-6.74-10.65-10.29-10.29-13.83-23.08-25.9-36.92-35.83-11.36-7.81-36.21-18.45-40.83-31.57,0,0-.36-.35-.71-.71,7.81-.71,17.04-3.55,24.5-5.68,12.07-3.2,23.08-2.48,35.5-5.68,5.68-1.42,11.36-3.19,17.04-4.97v-3.19c-6.39-6.39-11-14.9-17.75-20.93-18.11-15.61-37.99-30.86-58.58-43.63-11.01-7.1-25.21-11.71-36.92-17.74-4.26-2.13-11.36-3.19-13.84-6.74-6.39-7.8-9.94-18.09-14.56-27.31-10.29-19.51-20.24-41.15-29.11-61.72-6.39-13.84-10.29-27.67-18.1-40.44-36.57-60.31-76.33-96.85-137.39-132.68-13.14-7.45-28.76-10.64-45.44-14.54-8.87-.36-17.75-1.06-26.63-1.42-5.68-2.48-11.36-9.22-16.33-12.42C69.34,9.32,17.15-18.34,2.24,18.2c-9.59,23.06,14.2,45.76,22.37,57.47,6.04,8.16,13.85,17.38,18.11,26.6,2.49,6.03,3.19,12.42,5.68,18.8,5.68,15.6,11.01,32.99,18.46,47.54,3.91,7.45,8.16,15.25,13.14,21.99,2.84,3.9,7.81,5.68,8.88,12.06-4.97,7.1-5.33,17.74-8.17,26.61-12.78,40.09-7.81,89.75,10.3,119.19,5.68,8.87,19.17,28.38,37.28,20.93,15.98-6.38,12.43-26.6,17.04-44.34,1.07-4.26.36-7.1,2.49-9.93v.71c4.97,9.93,9.94,19.51,14.56,29.44,11.01,17.38,30.18,35.47,46.15,47.54,8.52,6.38,15.27,17.38,25.92,21.28v-1.07h-.71c-2.13-3.19-5.33-4.61-8.16-7.1-6.39-6.38-13.49-14.19-18.46-21.28-14.91-19.87-28.05-41.86-39.76-64.56-5.68-10.99-10.65-23.06-15.27-34.05-2.13-4.26-2.13-10.64-5.68-12.77-5.33,7.8-13.14,14.54-17.04,24.12-6.74,15.25-7.45,34.06-9.94,53.56-1.42.36-.71,0-1.42.71-11.36-2.84-15.26-14.55-19.53-24.48-10.65-25.19-12.43-65.63-3.19-94.72,2.49-7.45,13.14-30.86,8.88-37.96-2.13-6.74-9.23-10.64-13.14-15.96-4.61-6.74-9.59-15.25-12.78-22.7-8.52-19.87-12.78-41.86-22.01-61.73-4.26-9.22-11.71-18.8-17.75-27.31-6.74-9.58-14.2-16.32-19.53-27.67-1.77-3.9-4.26-10.29-1.42-14.54.71-2.84,2.13-3.9,4.97-4.61,4.62-3.9,17.75,1.06,22.37,3.19,13.14,5.32,24.14,10.29,35.15,17.74,4.97,3.55,10.29,10.29,16.68,12.06h7.46c11.36,2.48,24.14.71,34.79,3.9,18.82,6.03,35.86,14.9,51.13,24.48,46.51,29.44,84.85,71.3,110.77,121.32,4.26,8.16,6.03,15.61,9.94,24.12,7.46,17.38,16.69,35.12,24.14,52.15,7.46,16.67,14.56,33.7,25.21,47.54,5.33,7.45,26.63,11.35,36.21,15.25,7.1,3.19,18.11,6.03,24.5,9.93,12.07,7.45,24.14,15.97,35.5,24.12,5.68,4.26,23.43,13.13,24.5,20.22h0Z"/>
  <path d="M118.69,87.72c-6.03,0-10.29.71-14.55,1.78v.71h.71c2.84,5.68,7.81,9.58,11.36,14.54,2.84,5.67,5.33,11.35,8.17,17.03.35-.36.71-.71.71-.71,4.97-3.55,7.46-9.22,7.46-17.74-2.13-2.48-2.49-4.96-4.26-7.45-2.13-3.55-6.75-5.32-9.59-8.16h0Z"/>
</svg>
