<?xml version="1.0" encoding="UTF-8"?>
<svg xmlns="http://www.w3.org/2000/svg" viewBox="0 0 497 512" fill="currentColor">
  <path d="M356.63-.14c-19.9.15-39.69,3.04-58.81,8.6l-1.34.43c-12.06-2.13-24.26-3.31-36.5-3.52-25.14-.43-46.75,5.68-64.16,15.84-17.16-5.96-52.77-16.22-90.29-14.17-26.13,1.43-54.64,9.37-75.78,31.68C8.67,61.01-2.47,95.53-.12,142.49c.64,12.96,4.33,34.09,10.46,61.45,6.13,27.36,14.73,59.4,25.47,88.63,10.74,29.24,22.5,55.5,40.88,73.34,9.18,8.94,21.81,16.46,36.71,15.84,10.46-.43,19.92-5.02,28.07-11.78,3.97,5.23,8.22,7.51,12.08,9.63,4.87,2.67,9.61,4.48,14.51,5.68,8.82,2.2,23.91,5.14,41.58,2.13,6.02-1,12.36-2.97,18.68-5.76.23,7.04.51,13.94.79,20.92.88,22.11,1.43,42.54,8.07,60.45,1.07,2.92,3.99,17.99,15.52,31.29,11.53,13.32,34.11,21.62,59.83,16.12,18.14-3.88,41.22-10.89,56.54-32.7,15.16-21.56,21.99-52.49,23.33-102.65.34-2.71.75-5.02,1.17-7.17l3.61.32h.43c19.36.88,40.36-1.88,57.91-10.03,15.54-7.19,27.3-14.47,35.86-27.39,2.13-3.2,4.48-7.07,5.12-13.73.64-6.66-3.18-17.08-9.52-21.88-12.7-9.65-20.68-5.98-29.24-4.21-8.43,1.86-17.02,2.91-25.66,3.12,24.68-41.56,42.37-85.7,52.47-124.76,5.98-23.05,9.33-44.31,9.61-62.9.28-18.59-1.24-35.05-12.38-49.29C446.96,12.66,398.01.37,360.15-.06c-1.17-.02-2.35-.04-3.52-.02v-.06ZM355.62,13.52c35.82-.34,81.58,9.71,114.43,51.7,7.39,9.43,9.58,23.22,9.33,40.21-.28,16.97-3.42,37.29-9.16,59.55-11.14,43.12-32.19,93.39-61.84,138.49,1.05.74,2.18,1.36,3.37,1.84,6.19,2.56,20.3,4.76,48.45-1.02,7.09-1.49,12.27-2.5,17.65,1.6,2.65,2.25,4.1,5.6,3.91,9.07-.29,2.59-1.24,5.06-2.77,7.17-5.44,8.18-16.18,15.92-29.95,22.31-12.19,5.68-29.67,8.64-45.17,8.82-7.77.09-14.94-.51-21.03-2.41l-.38-.15c-2.35,22.63-7.75,67.3-11.27,87.69-2.82,16.44-7.75,29.5-17.16,39.28-9.39,9.78-22.69,15.67-40.58,19.51-22.16,4.76-38.31-.36-48.73-9.14-10.4-8.75-15.16-20.36-18.02-27.47-1.96-4.91-2.99-11.27-3.97-19.77s-1.71-18.89-2.2-30.61c-.65-17.94-.87-35.9-.64-53.85-9.26,8.48-20.76,14.11-33.13,16.22-14.71,2.5-27.83.04-35.67-1.92-3.86-.97-7.59-2.41-11.1-4.29-3.63-1.94-7.09-4.14-9.39-8.47-1.35-2.48-1.79-5.36-1.22-8.13.72-2.81,2.36-5.29,4.65-7.07,4.23-3.44,9.82-5.36,18.25-7.11,15.35-3.16,20.71-5.31,23.97-7.9,2.77-2.22,5.91-6.7,11.46-13.28-.03-.29-.05-.58-.06-.88-9.93-.28-19.66-2.9-28.39-7.64-3.2,3.37-19.55,20.66-39.49,44.65-8.39,10.03-17.65,15.8-27.43,16.2-9.78.43-18.61-4.5-26.13-11.78-15.01-14.58-26.98-39.66-37.42-68.01-10.42-28.35-18.89-59.92-24.91-86.81-6.04-26.9-9.61-48.58-10.12-59.04-2.24-44.44,8.15-74.39,25.98-93.28,17.84-18.89,42.31-26.04,66.15-27.41,42.8-2.45,83.44,12.47,91.66,15.67,15.84-10.76,36.24-17.46,61.73-17.03,12.1.17,24.14,1.73,35.88,4.65l.43-.19c5.17-1.82,10.43-3.34,15.77-4.57,14.5-3.38,29.32-5.18,44.21-5.36l.02-.04ZM358.87,27.82h-3.12c-12.23.17-24.41,1.54-36.37,4.1,26.6,11.78,46.68,29.93,60.83,48.03,9.83,12.53,17.96,26.31,24.16,40.98,2.35,5.64,3.93,10.4,4.82,14.09.45,1.86.75,3.42.85,5.04.04.81.09,1.64-.26,3.07,0,.06-.11.21-.13.28.64,18.7-3.99,31.38-4.55,49.22-.43,12.94,2.88,28.13,3.69,44.72.77,15.58-1.11,32.7-11.23,49.5.85,1.02,1.62,2.05,2.43,3.07,26.77-42.16,46.06-88.8,56.35-128.56,5.51-21.41,8.43-40.81,8.69-56.18.21-15.37-2.65-26.51-6.3-31.16-28.65-36.63-67.41-45.96-99.9-46.21v.02ZM256.62,33.28c-25.23.06-43.33,7.68-57.06,19.1-14.15,11.8-23.65,27.96-29.88,44.51-7.41,19.64-9.95,38.64-10.95,51.53l.28-.17c7.62-4.27,17.63-8.54,28.35-11.01,10.72-2.45,22.26-3.22,32.72.83s19.1,13.6,22.24,28.07c15.03,69.52-4.67,95.37-11.93,114.88-2.75,7.07-5.11,14.29-7.07,21.62.92-.21,1.84-.47,2.75-.55,5.12-.43,9.14,1.28,11.53,2.31,7.3,3.03,12.32,9.39,15.03,16.65.7,1.9,1.22,3.95,1.52,6.06.32.87.46,1.79.43,2.71-.81,26.59-.72,53.2.28,79.79.49,11.48,1.22,21.6,2.13,29.58.92,7.96,2.22,14.02,3.05,16.07,2.73,6.83,6.72,15.77,13.94,21.86,7.21,6.06,17.57,10.12,36.48,6.06,16.39-3.52,26.51-8.41,33.28-15.43,6.75-7.02,10.78-16.8,13.36-31.76,3.86-22.41,11.63-87.41,12.57-99.64-.43-9.22.94-16.31,3.88-21.71,3.03-5.55,7.73-8.94,11.78-10.78,2.03-.92,3.93-1.54,5.49-1.99-1.65-2.37-3.38-4.68-5.19-6.94-5.85-7.09-10.64-14.99-14.22-23.46-1.71-3.5-3.54-6.93-5.49-10.31-2.84-5.12-6.42-11.53-10.18-18.72-7.51-14.41-15.69-31.87-19.94-48.88-4.23-16.99-4.85-34.58,6-46.98,9.61-11.01,26.47-15.58,51.78-13.02-.75-2.24-1.2-4.1-2.45-7.09-5.72-13.47-13.19-26.13-22.22-37.65-21.45-27.43-56.18-54.62-109.84-55.5h-2.45v-.04ZM114.85,34.39c-2.71,0-5.42.09-8.11.23-21.56,1.24-41.94,7.49-56.52,22.95-14.6,15.45-24.21,40.79-22.11,82.73.41,7.94,3.86,30.18,9.8,56.61,5.91,26.43,14.3,57.53,24.38,85,10.1,27.47,22.33,51.38,33.94,62.69,5.85,5.66,10.93,7.94,15.54,7.75,4.63-.21,10.2-2.88,17.01-11.06,12.41-14.98,25.3-29.55,38.64-43.72-19.23-16.7-28.62-42.04-24.91-67.24,2.2-15.77,2.5-30.52,2.24-42.18-.26-11.36-1.07-18.91-1.07-23.63,0-.14,0-.27,0-.41v-.11l-.02-.13v-.02c-.01-24.57,4.26-48.96,12.64-72.06,5.98-15.88,14.88-32.02,28.22-45.08-13.11-4.31-36.37-10.89-61.56-12.12-2.7-.14-5.41-.21-8.11-.21h.02ZM379.49,147.14c-14.49.19-22.63,3.93-26.9,8.82-6.04,6.94-6.62,19.1-2.86,34.09,3.74,15.01,11.46,31.78,18.72,45.72,3.63,6.98,7.15,13.26,9.99,18.36,2.86,5.12,4.95,8.75,6.23,11.85,1.17,2.86,2.48,5.38,3.8,7.73,5.61-11.85,6.62-23.48,6.04-35.6-.75-15.01-4.23-30.35-3.71-45.89.58-18.16,4.16-29.99,4.48-44.04-5.24-.68-10.51-1.02-15.8-1.02ZM203.73,149.6c-4.43.04-8.84.57-13.15,1.58-8.59,2.09-16.87,5.31-24.61,9.58-2.62,1.4-5.11,3.03-7.45,4.87l-.47.43c.13,3.12.75,10.67,1,21.79.26,12.17-.04,27.68-2.39,44.48-5.1,36.5,21.39,66.73,52.51,66.77,1.81-7.49,4.8-15.09,7.79-23.1,8.67-23.35,25.72-40.39,11.36-106.86-2.35-10.89-7-15.28-13.4-17.76-3.59-1.27-7.38-1.88-11.18-1.79ZM372.72,153.95h1.07c1.41.04,2.71.19,3.84.47,1.15.26,2.13.64,2.95,1.17.84.52,1.42,1.37,1.6,2.35l-.02.17h.02-.02c.04,1.01-.22,2.02-.75,2.88-.63,1.17-1.42,2.25-2.35,3.2-2.17,2.38-5.07,3.98-8.24,4.53-3.09.37-6.21-.41-8.75-2.2-1.04-.7-1.98-1.55-2.77-2.52-.69-.76-1.16-1.7-1.34-2.71-.09-1,.23-1.98.9-2.73.7-.8,1.55-1.45,2.5-1.92,2.05-1.15,4.82-2.01,7.96-2.48,1.17-.17,2.33-.26,3.42-.28v.06ZM205.8,157.54c1.13,0,2.33.11,3.54.28,3.27.45,6.17,1.32,8.39,2.6,1.08.57,2.05,1.33,2.84,2.26.87,1,1.29,2.31,1.15,3.63-.21,1.23-.76,2.37-1.6,3.29-.87,1.07-1.9,2.01-3.05,2.77-2.78,1.97-6.19,2.83-9.56,2.41-3.45-.57-6.61-2.28-8.97-4.87-1-1.04-1.85-2.22-2.52-3.5-.7-1.13-1.01-2.46-.88-3.78.32-2.31,2.22-3.5,4.08-4.16,2.12-.68,4.34-.97,6.55-.85l.02-.09ZM399.19,314.28l-.06.02c-3.14,1.13-5.72,1.6-7.9,2.56-2.2.85-4.02,2.47-5.1,4.57-1.34,2.45-2.5,6.81-2.16,14.22.97.66,2.03,1.17,3.16,1.49,3.65,1.11,9.78,1.84,16.61,1.73,13.62-.15,30.37-3.33,39.28-7.47,7.3-3.39,14.08-7.81,20.13-13.13h-.02c-29.73,6.15-46.53,4.5-56.84.26-2.56-1.07-4.95-2.5-7.09-4.27v.02ZM227.76,316.28h-.45c-1.13.11-2.77.49-5.96,4.01-7.43,8.32-10.03,13.55-16.16,18.44-6.13,4.87-14.09,7.47-29.99,10.74-5.04,1.02-7.92,2.16-9.84,3.07.62.51.55.64,1.49,1.13,2.33,1.28,5.31,2.41,7.73,3.03,6.83,1.71,18.06,3.69,29.78,1.71,11.72-2.01,23.91-7.62,34.3-22.2,1.79-2.52,1.99-6.23.51-10.22-1.49-3.99-4.76-7.43-7.07-8.39-1.37-.66-2.84-1.09-4.35-1.28v-.04Z"/>
</svg>
