<?xml version="1.0" encoding="UTF-8"?>
<svg xmlns="http://www.w3.org/2000/svg" viewBox="0 0 347 512" fill="currentColor">
  <path id="c" d="M272.35,211.84c-9.68,0-17.54-7.86-17.54-17.52s7.86-17.53,17.54-17.53,17.53,7.87,17.53,17.53-7.86,17.52-17.53,17.52M227.92,318.4c-9.67,0-17.53-7.86-17.53-17.52s7.86-17.52,17.53-17.52,17.54,7.86,17.54,17.52-7.87,17.52-17.54,17.52M121.29,300.64c-9.66,0-17.52-7.86-17.52-17.52s7.86-17.53,17.52-17.53,17.54,7.87,17.54,17.53-7.86,17.52-17.54,17.52M76.87,398.31c-9.66,0-17.53-7.86-17.53-17.52s7.87-17.52,17.53-17.52,17.54,7.86,17.54,17.52-7.86,17.52-17.54,17.52M272.35,158.56c-19.73,0-35.78,16.04-35.78,35.76,0,12.09,6.07,22.74,15.29,29.22l-16.69,42.31c-2.34-.48-4.77-.74-7.24-.74-15.69,0-28.91,10.21-33.71,24.29l-37.35-8.49c-1.16-18.68-16.57-33.57-35.56-33.57s-35.77,16.04-35.77,35.76c0,9.22,3.59,17.55,9.35,23.89l-16.3,38.2c-.58-.04-1.12-.17-1.71-.17-19.72,0-35.77,16.03-35.77,35.75s16.05,35.75,35.77,35.75,35.78-16.04,35.78-35.75c0-12.65-6.64-23.72-16.59-30.08l14.38-33.7c3.45,1.1,7.04,1.86,10.85,1.86,14.07,0,26.16-8.23,31.99-20.05l39.57,8.99c3.24,16.41,17.72,28.82,35.07,28.82,19.73,0,35.78-16.03,35.78-35.75,0-10.66-4.79-20.13-12.21-26.69l17.54-44.45c1.11.11,2.18.34,3.32.34,19.72,0,35.77-16.04,35.77-35.75s-16.05-35.76-35.77-35.76M173.5,493.77c-88.86,0-155.26-26.71-155.26-50.59V101.96c30.23,24.59,94.22,37.59,155.45,37.59s124.67-12.89,155.07-37.27v340.9c0,23.88-66.4,50.59-155.26,50.59M173.69,18.23c91.38,0,155.07,27.16,155.07,51.55s-63.69,51.54-155.07,51.54S18.63,94.15,18.63,69.78,82.3,18.23,173.69,18.23M347,69.78C347,24.46,257.71,0,173.69,0S.38,24.46.38,69.78c0,.07.02.15.02.23h-.4v373.17c0,44.7,89.39,68.82,173.5,68.82s173.5-24.12,173.5-68.82V70.01h-.02c0-.07.02-.15.02-.23" fillRule="evenodd"/>
</svg>
