<?xml version="1.0" encoding="UTF-8"?>
<svg xmlns="http://www.w3.org/2000/svg" viewBox="0 0 512 512" fill="currentColor">
  <path d="M496.04,221.11l-60.65,34.9,60.65,34.79c7.35,4.16,12.71,11.1,14.87,19.26,2.2,8.18,1.04,16.89-3.2,24.21-4.31,7.3-11.31,12.61-19.46,14.78-8.16,2.16-16.84,1.01-24.15-3.2l-108.58-62.38c-6.98-3.98-12.17-10.47-14.51-18.15-1.07-3.34-1.56-6.84-1.45-10.35.36-11.02,6.36-21.08,15.89-26.62l108.58-62.31c15.26-8.82,34.78-3.6,43.6,11.66,0,0,0,0,0,0,8.82,15.03,3.79,34.36-11.24,43.18-.12.07-.24.14-.36.21ZM438.61,390.22l-108.52-62.29c-5.59-3.25-12.05-4.7-18.5-4.16-8,.54-15.49,4.11-20.95,9.98-5.48,5.89-8.53,13.63-8.6,21.7v124.73c-.01,17.55,14.21,31.8,31.76,31.81.06,0,.11,0,.17,0,17.66,0,31.93-14.25,31.93-31.81v-69.76l60.78,34.9c15.2,8.85,34.7,3.7,43.55-11.51.02-.03.04-.06.06-.1,8.8-15.19,3.63-34.64-11.56-43.44-.04-.03-.09-.05-.13-.08v.02ZM313.39,268.22l-45.14,44.84c-1.54,1.44-3.55,2.28-5.65,2.39h-13.25c-2.1-.12-4.1-.96-5.65-2.39l-45.12-44.84c-1.41-1.53-2.24-3.51-2.35-5.59v-13.23c.11-2.1.94-4.09,2.35-5.65l45.1-44.84c1.55-1.41,3.54-2.24,5.63-2.35h13.29c2.1.1,4.1.93,5.65,2.35l45.14,44.84c1.4,1.56,2.22,3.56,2.33,5.65v13.23c-.12,2.08-.95,4.05-2.35,5.59h.02ZM277.34,255.78c-.14-2.11-.99-4.11-2.41-5.67l-13.06-12.95c-1.57-1.41-3.57-2.24-5.67-2.35h-.51c-2.09.11-4.08.94-5.63,2.35l-13.06,12.95c-1.38,1.58-2.18,3.58-2.28,5.67v.51c0,1.81,1,4.31,2.28,5.59l13.06,13.01c1.3,1.28,3.82,2.35,5.63,2.35h.51c2.1-.11,4.11-.94,5.67-2.35l13.06-13.01c1.41-1.54,2.25-3.51,2.39-5.59v-.51h.02ZM73.31,121.68l108.56,62.38c5.85,3.35,12.33,4.67,18.52,4.16,8-.55,15.49-4.14,20.97-10.03,5.46-5.87,8.53-13.65,8.6-21.7V31.76c.02-17.54-14.27-31.76-31.89-31.76s-31.96,14.23-31.96,31.79v69.76l-60.8-34.96c-15.25-8.83-34.78-3.63-43.61,11.62,0,0,0,.02-.01.03-8.79,15.18-3.61,34.61,11.57,43.41.03.02.05.03.08.05h-.02ZM311.6,188.22c6.19.51,12.67-.81,18.47-4.16l108.52-62.36c7.34-4.17,12.7-11.11,14.87-19.26,2.19-8.17,1.05-16.88-3.18-24.21-8.83-15.25-28.35-20.45-43.6-11.63l-60.76,34.94V31.76c0-17.54-14.27-31.76-31.93-31.76s-31.93,14.23-31.93,31.79v124.69c0,16.69,12.9,30.54,29.55,31.72v.02ZM200.39,323.77c-6.45-.55-12.92.89-18.52,4.14l-108.56,62.29c-7.34,4.18-12.69,11.14-14.85,19.31-2.19,8.17-1.06,16.88,3.16,24.21,8.85,15.23,28.36,20.42,43.6,11.58l60.82-34.9v69.76c0,17.6,14.29,31.81,31.96,31.81s31.91-14.23,31.91-31.79v-124.73c-.02-8.05-3.08-15.8-8.55-21.7-5.46-5.87-12.95-9.44-20.95-9.98h-.02ZM170.95,265.31c1.07-3.33,1.54-6.83,1.45-10.33-.37-11.05-6.43-21.12-16.02-26.62l-108.46-62.29c-15.27-8.8-34.78-3.58-43.63,11.67-8.79,15.08-3.69,34.42,11.39,43.2.11.06.22.12.32.19l60.61,34.9-60.61,34.79c-7.36,4.15-12.72,11.1-14.89,19.26-2.2,8.18-1.04,16.89,3.2,24.21,4.31,7.32,11.31,12.63,19.46,14.78,8.15,2.18,16.83,1.02,24.15-3.2l108.5-62.38c7.36-4.16,12.31-10.77,14.59-18.18l-.06-.02Z" fillRule="evenodd"/>
</svg>