<?xml version="1.0" encoding="UTF-8"?>
<svg xmlns="http://www.w3.org/2000/svg" viewBox="0 0 500 512" fill="currentColor">
  <path d="M224.74,1c-9.03.28-17.95,4.57-25.4,12.86-4.1,4.67-7.62,9.82-10.47,15.34-7.54,14.17-9.03,30.07-11.81,45.54-5.25,28.93-10.39,57.88-15.42,86.85-.57,3.4-2.04,4.82-5.18,5.8-37.53,11.82-75.13,23.59-112.51,35.79-8.22,2.66-16.42,6.14-23.66,10.75-22.13,14.13-25.4,37.25-8.81,57.59,7.35,8.97,16.78,15.19,27.27,19.89,23.36,10.41,46.77,20.74,70.09,31.24.4.21.76.28,1.13.4h-.08l27.74,11.37c0,.49.04.96,0,1.55-4.25,43.14-8.28,86.34-12.32,129.52-.85,8.9-.25,17.66,2.85,26.14,6.73,18.49,22.62,24.4,39.95,14.9,7.9-4.34,14.15-10.56,19.9-17.38,29.14-34.49,58.33-68.94,87.36-103.53,2.36-2.83,4.35-3.19,7.71-2.08,7.41,2.49,14.8,4.91,22.2,7.37h.02c.42.25.96.43,1.55.64l3.02.89c26.51,8.84,56.92,16.47,83.45,25.29,8.5,2.81,13.21,3.49,22.2,2.08,6.61-1.02,12.57-1.32,17.59-5.02,12.79-7.01,21.13-20.34,20.99-35.74-.11-9.07-3.27-17.28-7.43-25.2-17.42-33.07-34.77-66.15-52.27-99.15-1.66-3.15-1.61-5.16.79-7.97,29.33-34.32,58.54-68.77,87.79-103.17,5.78-6.8,10.9-13.98,13.87-22.48,6.54-18.66-1.91-33.36-21.24-37-8.74-1.49-17.71-.98-26.23,1.47-41.93,11.07-83.84,22.12-125.7,33.36-3.72,1-5.52.32-7.54-3.06-16.95-28.57-34.09-57.04-51.42-85.38-3.9-6.53-8.55-12.59-13.85-18.04-7.88-7.86-17.03-11.67-26.06-11.39l-.02-.02ZM228.4,79.69c1.68,1.15,3.06,2.69,4.01,4.48,18.48,30.73,37,61.41,55.42,92.18,1.49,2.51,2.87,3.4,5.88,2.57,32.39-8.71,64.83-17.28,97.26-25.86,7.8-2.08,15.61-4.1,23.43-6.14-.29,1.59-1.03,3.06-2.12,4.25-26.74,31.45-53.44,62.94-80.27,94.31-2.34,2.76-2.55,4.68-.85,7.86,19.9,38.31,37.55,70.32,53.06,101.15l-78.51-21.65c-11.43-3.83-22.88-7.61-34.3-11.45-3.46-1.17-5.31-.64-7.65,2.13-26.51,31.62-53.19,63.11-79.84,94.65-.98,1.28-2.31,2.25-3.82,2.81.74-8.03,1.44-16.09,2.21-24.14,3.16-33.41,6.31-66.81,9.58-100.22-.64-6.76,2.49-8.61-6.84-11.58-31.71-12.6-71.07-28.07-102.29-40.48,1.45-1.33,3.2-2.31,5.1-2.85,38.17-12.11,76.36-24.23,114.57-36.23,2.7-.85,4.23-1.96,4.48-4.95.28-3.15,1.06-6.25,1.61-9.37,5.12-28.96,10.26-57.93,15.42-86.87,1.44-8.2,2.97-16.38,4.46-24.59Z"/>
</svg>