<?xml version="1.0" encoding="UTF-8"?>
<svg xmlns="http://www.w3.org/2000/svg" viewBox="0 0 456 512" fill="currentColor">
  <path d="M38.99,22.65C17.48,22.73.07,40.16,0,61.69v353.25c.07,21.51,17.48,38.94,38.99,39.01h200.12c-.95-11.42-1.5-24.71-1.5-38.14,0-6.83.14-13.63.43-20.39l-.03.97c-.14-1.31-.24-3-.34-4.26-2.6-17-5.95-33.86-10.05-50.59-2.02-8.58-4.71-16.07-8.13-23.15l.29.66c-1.36-2.14-2.16-4.75-2.16-7.54,0-.58.03-1.16.1-1.72v.07c.05-2.94.34-5.77.83-8.53l-.05.32c1.5-8.9,3.23-16.39,5.34-23.73l-.37,1.5,4.61-.6c-.36-.75-.31-1.38-.66-2.06l-.87-8.1c2.54-8.52,5.24-16.99,8.11-25.4l4.25-.41c-.17-.34-.2-.8-.39-1.12l-.92-6.72c17.11-80.53,52.83-150.87,102.51-208.88l-.53.63c1.39-1.46,2.82-2.72,4.2-4.12l-304.79-.02ZM433.64,11.09c-21.93-19.57-48.44-11.69-74.65,11.57-4.04,3.62-7.91,7.42-11.63,11.39-47.61,56.07-82.35,124.58-98.76,199.95l-.56,3.06c4.44,9.38,8.4,20.44,11.29,31.93l.27,1.28c1.3,4.95,2.47,9.93,3.49,14.94,1.53,7.52-.41-1.51-2.04-6.3l-1.05-3.1c-.22-.57-.45-1.13-.7-1.7-2.92-6.81-11-21.16-14.57-27.42-3.04,9-5.73,17.4-7.99,25.02,7.02,14.69,12.74,31.78,16.31,49.65l.24,1.41s-.53-2.11-3.13-9.4c-5.82-12.58-11.29-22.77-17.26-32.66l.85,1.51c-3.15,7.9-4.97,17.04-4.97,26.62,0,1.7.05,3.39.17,5.06l-.02-.22c3.72,7.25,6.82,15.68,8.82,24.49l.14.73c6.07,23.4,10.3,51.9,10.3,51.9l.36,4.77c-.26,5.82-.39,12.66-.39,19.52,0,13.7.58,27.27,1.72,40.68l-.12-1.75c.99,20.53,4.81,39.81,11.07,57.97l-.44-1.46,3.3-1.79c-5.88-20.31-9.27-43.64-9.27-67.76,0-5.86.2-11.64.6-17.4l-.05.78c3.76-64.37,16.39-124.58,36.69-181.12l-1.41,4.49c28.14-83.4,74.12-154.43,133.67-211.35l.2-.19c-42.36,38.28-99.69,162.29-116.87,208.2-16.37,41.19-30.57,90.11-40.21,140.64l-.82,5.19c11.29-27.9,32.54-49.8,59.22-61.65l.71-.29s22.46-27.74,48.7-67.33c-20.32,4.26-37.14,8.87-53.56,14.35l3.38-.97c-12.75,5.34-16.19,7.17-16.19,7.17,21.9-13.46,47.22-25.79,73.74-35.61l3.03-.99c48.75-76.85,101.87-186.02,48.38-233.8v-.03Z"/>
</svg>