<?xml version="1.0" encoding="UTF-8"?>
<svg xmlns="http://www.w3.org/2000/svg" viewBox="0 0 347 512" fill="currentColor">
  <path d="M166.7,473.5l-41.6-2c-3-.1-27.7-7.9-30.4-9.3-7.6-.8-11.5-7.8-18.9-9.8-15.4-4.1-37-30.3-40.8-52.9l-3.5-12.3c-3.7-22.1,0-57.2,6.5-84.5,9.2-14.4,18.8-30.8,32.3-41.1-5.6-13.8-24.8-63.7-27-110.5C42.5,135.9,37.5,2.3,82.8,0c6.3-.4,12.5,2.1,16.7,6.9,15.2,16.1,18.8,61.9,10.8,139.4-3.3,35.6-4.5,58.3-2.6,94,13.4-3.8,27.8-7.8,41.8-8.1,12.2-.2,27,1.1,39,3.2,2.8-17.5,12.6-68.7,44.1-112.6,36.8-51.3,74.9-104.4,103.2-87.8,5.7,3.2,9.6,8.9,10.7,15.4,5.4,29.1-33.3,78.7-37.7,84.3-6.9,8.9-15.8,19.2-25,30.1-16.7,18.5-32.1,38.1-46,58.8-7.5,13.2-8.3,12.8-14.1,26.9,21.6,11.8,34.6,26.9,45.9,48.7,18.3,37.9,12.8,92.2,4.3,109.4-5.4,10.9-30.8,41.1-46.9,49.7-8.5.4-27.7,11.5-53.5,16.1M122.1,469.6l42.5,1.9c23.3-1.9,48.6-9.1,59.8-15.6,9.4-.4,37.1-29.5,46.9-49.2,9.2-18.4,11.9-67.6-3.8-100.1-9.5-23.7-24.3-40.9-45.7-52l-5.5-4.1v-3.6c6.2-15.6,5.8-12.9,14.1-27.5,14.2-21.1,29.8-41.1,46.9-60,9.1-10.8,17.8-21,24.8-29.8,20.6-25.7,39.5-59.6,36.1-77.7-.6-4.2-3.2-7.8-6.9-9.9-22.1-12.9-61.2,41.8-92.5,85.6-34.4,48.2-43.3,109.7-43.3,110.4l-1.9,3.8-5.3-1.6c-12.7-2.7-26.1-1.9-39.1-1.6-14.8.2-28.9,3.7-43,8l-6.3,2.9-.3-5.9c-2.4-37.9-1-60.7,2.4-98.5,7.6-74.2,4.8-118.9-8.6-133.1-2.6-2.9-6.5-4.5-10.4-4.3-25.2,1.2-35.2,72.6-31.8,142.5,2.4,50.9,25.5,106.8,25.8,107.5l1.7,3.9-2.8,2.9c-13.7,10.1-22.4,25-31.5,39.3-12.8,22.5-15.7,71.2-6.9,92.1l2.5,10.7c3.4,20.6,17.6,35.1,29,38.1,7.3,2,16.1,13.7,23.7,14.3"/>
  <path d="M83.2,256l11.1-5.5s-1.1-59,0-102.2,3.3-96.8-11.1-96.3-24.4,42-18.8,100.7c4.2,39.1,8.2,65.4,18.8,103.3h0Z"/>
  <path d="M202.4,241.8s20.2-56.8,44.6-96.6c24.4-39.8,55-66.1,65-60,9.9,6.1-18.6,39.6-46,75.7-22.3,32.3-35.4,52.5-53.4,87.3l-10.2-6.4h0Z"/>
  <path d="M181.6,402.8c-.7-.4-1.6-.1-2.1.5,0,0-4.7,8.2-11.5,8.7-4.7-.1-9.1-2.2-12.2-5.7v-12.1c4.3-2.3,11.4-9.7,11.4-12.2-1.2-5.6-6.4-9.4-12.1-8.9-8.1,0-13.8,5.2-13.8,9.7s8.9,10,11.4,11.7v11.8c-2.6,3.3-6.4,5.4-10.6,5.6-6.5,0-11.4-8.8-11.4-8.9-.4-.7-1.3-1-2.1-.6-.7.4-1,1.3-.6,2.1,0,.4,5.8,10.5,14.1,10.5,4.7-.2,9.1-2.4,12.2-5.9,3.4,3.5,8,5.6,12.9,5.9h1c5.8-1.2,10.9-5,13.8-10.2.4-.7.2-1.6-.5-2.1h.1Z"/>
  <path d="M94.4,352.7c-6.8,0-12.4,5.5-12.4,12.3s5.5,12.4,12.3,12.5c6.8,0,12.4-5.5,12.4-12.3h0c0-6.9-5.5-12.5-12.3-12.5h0ZM98,364.2c-1.8,0-3.3-1.4-3.3-3.2h0c0-1.9,1.6-3.2,3.3-3.2s3.4,1.5,3.4,3.4h0c-.2,1.7-1.6,3.1-3.4,3h0Z"/>
  <path d="M216,352.7c-6.8,0-12.4,5.5-12.4,12.3s5.5,12.4,12.3,12.5c6.8,0,12.4-5.5,12.4-12.3h0c0-6.9-5.5-12.5-12.3-12.5h0ZM219.5,364.2c-1.8,0-3.3-1.4-3.3-3.2h0c0-2,1.4-3.5,3.2-3.5h0c1.9,0,3.4,1.5,3.4,3.4h0c0,1.8-1.5,3.3-3.3,3.3h0Z"/>
  <path d="M296.3,323.8v-55c8.8-1.9,15.2-9.6,15.6-18.6-1.2-11.8-11.7-20.5-23.5-19.3-10.2,1-18.3,9.1-19.3,19.3.4,9,6.8,16.6,15.5,18.6v53.3h-1.5c-16-56.4-64.3-91.5-127.1-91.5s-111.1,34.4-127.1,91.5h-5.5c-12.2-.6-22.7,8.8-23.4,21v42.2c.7,12.2,11.1,21.6,23.4,21h7.4c6.3,15.9,16.3,30.1,29.2,41.3l-10.2,9.7c-2.7,2.3-3.1,6.4-.8,9.1h0c23.4,28.9,62.7,45.5,106.5,45.5s83-16.6,106.8-45.5c2.3-2.7,2-6.8-.7-9.1h0l-10.5-9.4c12.9-11.2,22.9-25.4,29.2-41.3h8.2c12.3.5,22.8-9,23.4-21.3v-41.8c-.3-9.3-6.7-17.2-15.6-19.7h0ZM156,290.8c58.1,0,105.3,42,105.3,85.2s-53,73.6-105.3,73.6-105.3-23-105.3-73.6,47.3-85.2,105.3-85.2h0ZM300.2,371.5h-15.6c0-2.4.4-4.9.4-7.7,0-10.4-1.1-20.7-3.1-30.8h6.9c6-.4,11.2,4.1,11.7,10.1v.4l-.3,28h0ZM288.5,396h-8.2c1.6-5.8,2.7-11.7,3.4-17.6h16.4v6.9c-.1,6-5.1,10.9-11.1,10.8h-.5,0ZM156,501.1c-39,0-73.7-13.8-95.5-38.9l10.9-9.8c25,16.6,54.6,25.1,84.6,24.2,30,.9,59.6-7.6,84.6-24.2l10.9,9.8c-21.9,24.9-56.6,38.9-95.6,38.9h.1ZM23.4,332.9h6.9c-2,10.1-3.1,20.5-3.1,30.8s.2,5.2.5,7.8h-15.6v-28.1c-.1-5.7,4.5-10.5,10.2-10.6h1.1ZM156,283.8c-13.2,0-26.3,1.9-39,5.6v-42.4c25.5-7,52.5-7,78,0v42.8c-12.6-4-25.8-6-39-6h0ZM109.2,249.5v42.8c-38.7,14.4-67.8,46.6-66.2,83.7,2,46.5,45.6,81.3,113,80.6,68.4-.7,112.8-38.5,113.1-80.6.3-35.1-35.8-75-66.3-83.7v-42.8c45.6,16.5,74.1,58.5,74.1,114.6s-48.2,105.5-120.9,105.5-120.9-42.5-120.9-105.9,28.5-97.8,74.1-114.3h0ZM11.7,378.4h16.4c.8,5.9,2,11.8,3.5,17.5h-8.2c-6,.4-11.2-4.1-11.7-10.1v-.5s0-6.9,0-6.9ZM290.5,241.8c5.4,0,9.8,3.9,9.8,8.7s-4.4,8.7-9.8,8.7h0c-5.4,0-9.8-3.9-9.8-8.7h0c0-4.8,4.4-8.7,9.8-8.7h0Z"/>
</svg>
