<?xml version="1.0" encoding="UTF-8"?>
<svg id="a" xmlns="http://www.w3.org/2000/svg" xmlns:xlink="http://www.w3.org/1999/xlink" viewBox="0 0 512 512">
  <defs>
    <clipPath id="b">
      <path d="M226.46,452.92C101.59,452.92,0,351.33,0,226.46S101.59,0,226.46,0s226.46,101.59,226.46,226.46-101.59,226.46-226.46,226.46ZM226.46,39.38c-103.15,0-187.08,83.92-187.08,187.08s83.92,187.08,187.08,187.08,187.08-83.92,187.08-187.08S329.62,39.38,226.46,39.38Z" style="fill: none;"/>
    </clipPath>
  </defs>
  <path d="M315.08,433.02c-10.88,0-19.69-8.82-19.69-19.69v-157.33c0-10.88,8.82-19.69,19.69-19.69s19.69,8.82,19.69,19.69v157.33c0,10.88-8.82,19.69-19.69,19.69Z" style="fill: #34a853;"/>
  <path d="M137.85,433.02c-10.88,0-19.69-8.82-19.69-19.69v-216.41c0-10.88,8.82-19.69,19.69-19.69s19.69,8.82,19.69,19.69v216.41c0,10.88-8.82,19.69-19.69,19.69Z" style="fill: #34a853;"/>
  <path d="M226.46,452.92c-10.88,0-19.69-8.82-19.69-19.69V137.85c0-10.88,8.82-19.69,19.69-19.69s19.69,8.82,19.69,19.69v295.38c0,10.88-8.82,19.69-19.69,19.69Z" style="fill: #34a853;"/>
  <path d="M226.46,452.92C101.59,452.92,0,351.33,0,226.46h39.38c0,103.15,83.92,187.08,187.08,187.08s187.08-83.92,187.08-187.08h39.38c0,124.87-101.59,226.46-226.46,226.46Z" style="fill: #fbbc04;"/>
  <path d="M452.92,226.46h-39.38c0-103.15-83.92-187.08-187.08-187.08S39.38,123.31,39.38,226.46H0C0,101.59,101.59,0,226.46,0s226.46,101.59,226.46,226.46Z" style="fill: #ea4335;"/>
  <path d="M492.31,512c-5.04,0-10.08-1.92-13.92-5.77l-119.64-119.64c-7.69-7.69-7.69-20.16,0-27.85,7.69-7.69,20.16-7.69,27.85,0l119.64,119.64c7.69,7.69,7.69,20.16,0,27.85-3.85,3.85-8.88,5.77-13.92,5.77h0Z" style="fill: #4285f4;"/>
  <path d="M386.59,386.59l-27.85-27.85c72.94-72.94,72.94-191.62,0-264.57l27.85-27.85c42.77,42.77,66.33,99.64,66.33,160.13s-23.56,117.36-66.33,160.13h0Z" style="fill: #4285f4;"/>
  <g style="clip-path: url(#b);">
    <path d="M492.31,512c-5.04,0-10.08-1.92-13.92-5.77l-177.23-177.23c-7.69-7.69-7.69-20.16,0-27.85,7.69-7.69,20.16-7.69,27.85,0l177.23,177.23c7.69,7.69,7.69,20.16,0,27.85-3.84,3.85-8.88,5.77-13.92,5.77h0Z" style="fill: #4285f4;"/>
  </g>
</svg>
