<?xml version="1.0" encoding="UTF-8"?>
<svg id="a" data-name="svg3" xmlns="http://www.w3.org/2000/svg" viewBox="0 0 476 512">
  <path id="b" data-name="path1" d="M450.5,211.06l-212.26,119.38L10.94,202.88l-10.94,5.9v92.62l238.23,133.43,212.24-118.91v49.01l-212.24,119.4L10.94,356.78l-10.94,5.9v15.87l238.23,133.45,237.77-133.45v-92.6l-10.94-5.9-226.82,127.09L25.5,288.23v-49.04l212.73,118.91,237.77-133.4v-91.3l-11.85-6.81-225.91,126.65L36.45,140.68,238.23,27.66l165.78,93.04,14.58-8.16v-11.35L238.23,0,0,133.43v14.54l238.23,133.45,212.24-119.4.02,49.04Z" style="fill: #ee3d2c;"/>
</svg>