<?xml version="1.0" encoding="UTF-8"?>
<svg id="a" data-name="Layer 1" xmlns="http://www.w3.org/2000/svg" viewBox="0 0 529 512">
  <path d="M117.71,326.74c-15.58,7.78-46.74,23.35-45.18,42.03,4.67,10.9,17.14,0,21.81-4.67,10.91-10.9,18.69-24.91,23.37-37.36M214.3,286.27c-10.91,28.02-42.06,40.48-49.85,35.81-4.67-3.11,0-10.9,0-17.12-6.23,3.11-17.14,7.78-23.37,9.34,15.58,10.9,23.37,31.14,23.37,49.82s-7.79,35.81-21.81,48.26c26.48,38.92,12.46,71.61-23.37,98.08l-1.56,1.56v-3.11c-4.67-18.68-12.46-34.25-24.93-48.26-6.23-7.78-14.02-14.01-20.25-20.24-9.35-9.34-18.69-17.12-26.48-26.47C10.22,376.56-3.8,311.18.87,261.36c3.12-26.47,10.91-51.37,21.81-73.17,9.35-18.68,21.81-35.81,35.83-49.82,31.16-32.69,73.22-59.16,116.84-73.17,38.95-10.9,82.57-14.01,119.96,4.67,6.23,3.11,15.58,7.78,20.25,12.45,3.12,3.11,6.23,6.23,9.35,9.34l1.56,1.56L497.83,6.05c14.02-7.78,24.93-7.78,29.6-1.56,4.67,6.23-1.56,18.68-12.46,24.91l-148,107.42c3.12,7.78-1.56,20.24-7.79,28.02,20.25,6.23,3.12,35.81-6.23,45.15-24.93,29.58-70.1,51.37-110.61,68.5-12.46,3.11-18.69,4.67-28.04,7.78" style="fill: #393c42; stroke: #fff; stroke-width: 6; fill-rule: evenodd;"/>
  <path d="M349.83,186.63c10.91-14.01,3.12-21.79-4.67-14.01-15.58,15.57-37.39,20.24-59.2,17.12-29.6-4.67-31.16-9.34-26.48-14.01,35.83,12.45,77.89-4.67,95.03-32.69,7.79-10.9-17.14-18.68-32.72-38.92C251.69,9.16,30.47,91.67,10.22,258.25c-6.23,49.82,7.79,105.86,42.06,144.78,26.48,29.58,52.97,42.03,70.1,87.18,31.16-26.47,26.48-56.04,3.12-82.51,38.95-20.24,32.72-71.61,6.23-87.18-12.46,46.7-57.64,80.95-68.55,48.26-6.23-34.25,48.29-56.04,137.09-88.74,73.22-29.58,121.51-52.93,149.56-93.41" style="fill: #55bfce; fill-rule: evenodd;"/>
  <path d="M349.83,186.63c10.91-14.01,3.12-21.79-4.67-14.01-12.46,14.01-32.72,18.68-49.85,18.68-31.16-1.56-54.53-7.78-76.34-6.23-43.62,4.67-87.24,32.69-109.05,56.04-38.95,38.92-81.01,121.43-38.95,137-3.12-1.56-6.23-6.23-7.79-10.9-6.23-34.25,48.29-56.04,137.09-88.74,73.22-28.02,121.51-51.37,149.56-91.85" style="fill: #fff; fill-rule: evenodd;"/>
  <path d="M159.77,250.46c23.37,10.9,18.69,49.82,15.58,60.71,43.62-12.45,29.6-76.28,49.85-94.96-24.93-1.56-71.66,23.35-65.43,34.25" style="fill: #55bfce; fill-rule: evenodd;"/>
  <path d="M232.99,135.26c6.23-3.11,14.02-1.56,17.14,4.67,3.12,6.23,1.56,14.01-4.67,17.12-6.23,3.11-14.02,1.56-17.14-4.67-4.67-6.23-1.56-14.01,4.67-17.12" style="fill: #393c42; stroke: #fff; stroke-width: 4; fill-rule: evenodd;"/>
  <path d="M337.37,139.93L510.29,20.06c4.67-3.11,10.91-10.9,9.35-14.01-3.12-3.11-10.91-1.56-17.14,1.56l-186.94,101.19c-6.23,12.45,6.23,38.92,21.81,31.14" style="fill: #55bfce; fill-rule: evenodd;"/>
  <path d="M321.79,116.58L502.5,10.72c7.79-4.67,10.91-4.67,15.58-4.67-3.12-3.11-10.91-1.56-15.58,1.56l-186.94,101.19c-4.67,9.34,1.56,26.47,10.91,32.69-3.12-9.34-4.67-17.12-4.67-24.91" style="fill: #fff; fill-rule: evenodd;"/>
  <path d="M55.4,164.84c6.23-1.56,10.91,3.11,10.91,9.34s-4.67,12.45-10.91,12.45c-6.23,1.56-10.91-3.11-10.91-9.34s4.67-12.45,10.91-12.45" style="fill: #25abad; fill-rule: evenodd;"/>
  <path d="M91.23,125.92c4.67-1.56,9.35,3.11,9.35,7.78s-4.67,10.9-9.35,10.9c-4.67,1.56-9.35-3.11-9.35-7.78,0-4.67,3.12-10.9,9.35-10.9" style="fill: #25abad; fill-rule: evenodd;"/>
  <path d="M197.16,74.55c4.67,0,7.79,4.67,7.79,9.34-1.56,4.67-6.23,9.34-12.46,9.34-4.67,0-7.79-4.67-7.79-9.34,1.56-6.23,7.79-9.34,12.46-9.34" style="fill: #25abad; fill-rule: evenodd;"/>
  <path d="M229.88,68.32c4.67,1.56,6.23,4.67,4.67,9.34s-6.23,6.23-10.91,6.23c-4.67-1.56-6.23-4.67-4.67-9.34,1.56-4.67,6.23-6.23,10.91-6.23" style="fill: #25abad; fill-rule: evenodd;"/>
  <path d="M91.23,149.27c3.12,0,6.23,1.56,6.23,6.23s-3.12,7.78-7.79,7.78c-3.12,0-6.23-1.56-6.23-6.23,1.56-3.11,4.67-6.23,7.79-7.78" style="fill: #25abad; fill-rule: evenodd;"/>
  <path d="M36.7,194.42c4.67,0,7.79,1.56,7.79,6.23s-3.12,7.78-7.79,9.34c-4.67,0-7.79-1.56-7.79-6.23s3.12-7.78,7.79-9.34" style="fill: #25abad; fill-rule: evenodd;"/>
  <path d="M360.74,83.89l-7.79,4.67c0,12.45,10.91,26.47,17.14,28.02-6.23-7.78-10.91-23.35-9.35-32.69M404.36,60.54l-7.79,3.11c1.56,10.9,9.35,23.35,14.02,23.35-3.12-4.67-7.79-18.68-6.23-26.47M446.42,37.18l-4.67,3.11c0,6.23,4.67,17.12,10.91,18.68-3.12-4.67-7.79-12.45-6.23-21.79M486.93,15.39l-4.67,3.11c0,4.67,6.23,12.45,9.35,14.01-1.56-3.11-4.67-10.9-4.67-17.12" style="fill: #25abad; fill-rule: evenodd;"/>
</svg>
