<svg xmlns="http://www.w3.org/2000/svg" viewBox="0 0 412 512">
  <defs>
    <linearGradient id="b" x1="369.06" y1="924" x2="155.87" y2="1100.59" gradientTransform="translate(0 -676)" gradientUnits="userSpaceOnUse">
      <stop offset="0" stop-color="#0094f0"/>
      <stop offset=".24" stop-color="#0078d4"/>
      <stop offset=".58" stop-color="#2052cb"/>
      <stop offset=".83" stop-color="#312a9a"/>
    </linearGradient>
    <radialGradient id="c" cx="-987.96" cy="255.75" fx="-987.96" fy="255.75" r="10.63" gradientTransform="translate(-15353.18 28715.78) rotate(143.59) scale(29.82 53.02)" gradientUnits="userSpaceOnUse">
      <stop offset="0" stop-color="#3bd5ff"/>
      <stop offset="1" stop-color="#0078d4"/>
    </radialGradient>
    <radialGradient id="d" cx="-995.51" cy="250.94" fx="-995.51" fy="250.94" r="10.62" gradientTransform="translate(-15033.76 23776.04) rotate(146.31) scale(25.96 43.8)" gradientUnits="userSpaceOnUse">
      <stop offset="0" stop-color="#decbff" stop-opacity=".9"/>
      <stop offset="1" stop-color="#decbff" stop-opacity="0"/>
    </radialGradient>
    <linearGradient id="e" x1="299.31" y1="693.52" x2="57.8" y2="956.48" gradientTransform="translate(0 -676)" gradientUnits="userSpaceOnUse">
      <stop offset="0" stop-color="#0fafff"/>
      <stop offset=".16" stop-color="#0094f0"/>
      <stop offset=".56" stop-color="#2052cb"/>
      <stop offset=".76" stop-color="#312a9a"/>
    </linearGradient>
    <radialGradient id="f" cx="-988.23" cy="249.97" fx="-988.23" fy="249.97" r="10.63" gradientTransform="translate(-11291.14 23666.81) rotate(137.53) scale(24.66 38.41)" gradientUnits="userSpaceOnUse">
      <stop offset="0" stop-color="#3bd5ff"/>
      <stop offset="1" stop-color="#0078d4"/>
    </radialGradient>
    <radialGradient id="g" cx="-1004.11" cy="249.07" fx="-1004.11" fy="249.07" r="10.62" gradientTransform="translate(-13524.97 18136.32) rotate(149.04) scale(20.99 33.6)" gradientUnits="userSpaceOnUse">
      <stop offset="0" stop-color="#decbff" stop-opacity=".9"/>
      <stop offset="1" stop-color="#d1d1ff" stop-opacity="0"/>
    </radialGradient>
  </defs>
  <path d="M205.94,358c112.66,0,204,34.25,204,76.5v-153c0-42.25-91.34-76.5-204-76.5h-51v153h51Z" style="fill: url(#b);"/>
  <path d="M409.95,281.5c0,42.25-91.33,76.5-204,76.5-68.71,0-129.49-12.74-166.45-32.26-20.02-8.87-37.55,4.57-37.55,22.8v85.96c0,42.25,91.33,76.5,204,76.5s204-34.25,204-76.5v-153h0Z" style="fill: url(#c);"/>
  <path d="M409.95,281.5c0,42.25-91.33,76.5-204,76.5-68.71,0-129.49-12.74-166.45-32.26-20.02-8.87-37.55,4.57-37.55,22.8v85.96c0,42.25,91.33,76.5,204,76.5s204-34.25,204-76.5v-153h0Z" style="fill: url(#d);"/>
  <path d="M205.95,1c112.67,0,204,34.25,204,76.5v86.66c0,11.85-12.35,32.67-37.58,22.09-36.97-19.51-97.73-32.25-166.42-32.25C93.28,154,1.95,188.25,1.95,230.5V77.5C1.95,35.25,93.28,1,205.95,1Z" style="fill: url(#e);"/>
  <path d="M205.95,154C93.28,154,1.95,119.75,1.95,77.5v153c0,42.25,91.33,76.5,204,76.5h12.75c21.13,0,38.25-17.13,38.25-38.25v-76.5c0-21.12-17.13-38.25-38.25-38.25h-12.75Z" style="fill: url(#f);"/>
  <path d="M205.95,154C93.28,154,1.95,119.75,1.95,77.5v153c0,42.25,91.33,76.5,204,76.5h12.75c21.13,0,38.25-17.13,38.25-38.25v-76.5c0-21.12-17.13-38.25-38.25-38.25h-12.75Z" style="fill: url(#g);"/>
</svg>
