<?xml version="1.0" encoding="UTF-8"?>
<svg id="a" data-name="Layer 1" xmlns="http://www.w3.org/2000/svg" xmlns:xlink="http://www.w3.org/1999/xlink" viewBox="0 0 468 512">
  <defs>
    <linearGradient id="b" x1="-2626.59" y1="19421.69" x2="-1650.57" y2="18844.97" gradientTransform="translate(177 -276.62) scale(.04)" gradientUnits="userSpaceOnUse">
      <stop offset="0" stop-color="#909ca9"/>
      <stop offset="1" stop-color="#ededee"/>
    </linearGradient>
    <linearGradient id="c" x1="-2604.65" y1="8555.27" x2="-1819.21" y2="8555.27" gradientTransform="translate(177 -276.62) scale(.04)" gradientUnits="userSpaceOnUse">
      <stop offset="0" stop-color="#939fab"/>
      <stop offset="1" stop-color="#dcdee1"/>
    </linearGradient>
    <radialGradient id="d" cx="-18678.49" cy="-17262.18" fx="-18678.49" fy="-17262.18" r="1042.33" gradientTransform="translate(-261.83 -1177.06) rotate(-171.46) scale(.04 .07) skewX(-.2)" gradientUnits="userSpaceOnUse">
      <stop offset="0" stop-color="#ee352c"/>
      <stop offset="1" stop-color="#a91d22"/>
    </radialGradient>
  </defs>
  <path d="M295.48,239.02l-102.58,33.48-89.25,39.37-24.97,6.59c-6.36,6.05-13.03,12.17-20.24,18.37-7.91,6.82-15.27,13.02-20.94,17.51-6.28,4.96-15.58,14.26-20.31,20.15-7.06,8.83-12.64,18.21-15.04,25.42-4.26,13.02-2.17,26.2,6.05,38.36,10.55,15.5,31.56,31.31,56.06,42.08,12.48,5.5,33.5,12.56,49.31,16.51,26.28,6.67,77.15,13.87,105.14,14.96,5.66.23,13.26.23,13.57,0,.62-.39,4.96-8.68,10-18.99,17.21-35.11,29.62-68.05,36.36-96.18,4.03-17.05,7.21-39.76,9.3-66.65.54-7.52.78-32.71.31-41.23-.7-13.95-1.94-25.26-3.88-36.35-.31-1.63-.39-3.1-.23-3.18.31-.23,1.24-.54,13.88-4.19l-2.56-6.04h0s0,0,0,0h0ZM272.06,252.74c.93,0,3.41,23.79,4.03,38.83.16,3.18.08,5.27-.08,5.27-.62,0-13.1-7.36-22.02-12.94-7.75-4.88-22.49-14.65-24.81-16.51-.78-.54-.7-.62,5.66-2.79,10.78-3.64,36.37-11.86,37.22-11.86ZM219.8,269.94c.7,0,2.48,1.01,6.75,3.64,15.97,10,37.68,22.09,46.99,26.12,2.87,1.24,3.18.77-3.41,5.27-14.11,9.61-31.71,19.06-53.27,28.6-3.8,1.71-6.98,3.02-7.05,3.02-.15,0,.31-1.94.93-4.26,5.2-19.3,8.14-38.83,8.3-54.48q.08-7.75.78-7.98c-.16.08-.08.08,0,.08h0ZM209.03,274.05c.46.46.15,17.83-.47,22.55-1.4,11.32-3.57,21.86-7.13,33.71-.85,2.87-1.63,5.27-1.78,5.42-.31.39-10.93-10-14.42-14.03-6.05-6.98-10.78-13.95-14.27-20.77-1.78-3.49-4.57-10.31-4.34-10.54,1.24-.85,42.1-16.66,42.41-16.35h0ZM158.31,293.97c.08,0,.15,0,.23.08.15.16.7,1.4,1.16,2.79,2.48,6.74,8.06,16.66,12.87,23.02,5.27,6.98,12.17,14.41,17.91,19.3,1.86,1.55,3.57,3.02,3.8,3.26.47.47.62.39-12.02,5.19-14.65,5.58-30.63,11.16-48.93,17.05-4.37,1.41-8.74,2.83-13.1,4.26-.7.23-.47-.16,1.55-3.33,9.07-14.18,22.87-42.01,30.63-61.69,1.32-3.41,2.64-6.82,2.87-7.59.31-1.09.7-1.47,1.7-2.02.54-.15,1.09-.31,1.32-.31h0ZM142.81,300.4c.23.16-3.72,8.45-7.6,16.04-7.52,14.65-15.74,29.06-26.75,46.58-1.86,3.02-3.64,5.81-3.88,6.12-.39.54-.54.39-1.78-2.01-2.64-5.19-4.81-11.86-5.97-17.98-1.16-6.05-.93-16.58.39-23.09,1.01-4.8.93-4.73,3.26-5.89,9.92-5.04,42.03-20.07,42.34-19.76h0ZM276.56,305.83v3.25c0,17.28-1.86,41-4.58,58.28-.47,3.02-.85,5.5-.93,5.58,0,0-2.25-.62-4.88-1.4-11.63-3.64-24.27-8.99-35.67-15.27-7.52-4.11-18.45-10.85-18.14-11.16.08-.08,3.33-1.78,7.13-3.8,15.2-7.9,29.78-16.43,42.41-24.88,4.73-3.18,11.86-8.29,13.41-9.69l1.24-.93h0ZM84.27,328.77c.31,0,.23.62-.23,3.41-.31,2.02-.7,5.74-.85,8.29-.62,11.32,1.24,19.69,6.82,31.16,1.55,3.18,2.79,5.81,2.71,5.89-.54.47-51.87,15.5-68,19.92-4.81,1.32-8.99,2.48-9.31,2.56-.54.16-.62.08-.39-1.24,1.78-11.39,10.47-26.27,22.56-38.83,8.06-8.37,14.5-13.25,25.51-19.53,7.91-4.49,20.08-11.24,21.01-11.55,0-.08.08-.08.16-.08h0ZM205.23,350.39c.08-.08,1.94.93,4.19,2.25,16.59,9.61,39.7,18.52,59.39,23.1l1.78.39-2.48,1.39c-10.31,5.74-44.2,19.84-78.85,32.78-5.04,1.86-10,3.72-10.93,4.11-.93.39-1.78.62-1.78.54s1.4-2.79,3.18-6.12c9.69-18.14,19.46-40.22,24.42-55.57.62-1.47,1.01-2.79,1.09-2.87h0ZM192.9,354.42c.08.08-.54,1.71-1.32,3.56-6.75,16.35-15.59,34.18-26.91,54.17-2.87,5.12-5.27,9.22-5.35,9.22s-2.4-1.4-5.19-3.1c-16.44-10.08-31.02-22.48-40.55-34.49l-1.4-1.71,7.06-1.94c25.28-6.9,46.75-14.34,68.08-23.48,3.02-1.24,5.51-2.25,5.58-2.25ZM269.5,381.16s.08.08,0,0c.08,1.78-3.88,17.75-7.13,29.29-2.71,9.69-5.04,17.28-9.3,30.69-1.86,5.89-3.49,10.77-3.57,10.77s-.54-.08-1.01-.23c-23.03-4.19-43.65-10-63.04-17.75-5.43-2.17-13.18-5.66-13.65-6.05-.15-.16,4.5-2.33,10.39-4.88,35.28-15.42,71.88-32.94,84.44-40.45,1.47-.93,2.64-1.39,2.87-1.39h0ZM92.64,387.2c.16.15-9.69,14.34-23.49,33.64-4.81,6.74-10.39,14.65-12.48,17.59-2.09,2.95-5.27,7.6-7.06,10.39l-3.26,5.04-3.49-2.94c-4.11-3.41-11.24-10.7-14.42-14.73-6.67-8.29-11.17-17.05-12.95-25.03-.85-3.72-.85-5.58-.08-5.81,1.16-.31,21.87-5.19,41.25-9.69,10.78-2.48,23.26-5.42,27.76-6.51,4.5-1.09,8.14-1.94,8.22-1.94h0ZM102.57,391l2.48,2.79c11.17,12.48,22.56,21.7,36.37,29.76,2.48,1.4,4.34,2.64,4.19,2.71-.54.39-47.92,17.2-69.86,24.8-12.33,4.34-22.49,7.83-22.56,7.83s-.78-.46-1.55-1.01l-1.39-1.01,2.25-3.25c7.29-10.54,16.44-22.09,36.37-46.11l13.72-16.51h0ZM164.44,435.25c.08-.08,3.49,1.16,7.67,2.71,10.08,3.8,18.07,6.2,28.77,8.91,13.18,3.33,32.26,6.59,43.5,7.52,1.71.15,2.64.31,2.33.54-.54.31-11.94,4.11-20.31,6.74-13.34,4.18-54.04,16.2-87.23,25.73-6.13,1.78-11.4,3.26-11.71,3.33-.77.16-3.33-.54-3.33-.85,0-.15,1.86-2.56,4.11-5.19,11.16-13.33,22.25-28.21,31.48-42.32,2.56-3.88,4.73-7.05,4.73-7.13h0ZM150.79,435.64c.08.08-5.43,8.91-15.04,24.1-4.11,6.43-8.69,13.72-10.31,16.28-1.55,2.48-3.88,6.36-5.19,8.53l-2.25,3.95-1.16-.31c-2.79-.78-22.41-7.67-27.6-9.77-6.44-2.56-13.1-5.66-18.07-8.29-6.2-3.33-13.96-8.29-13.34-8.45.15-.08,10.78-2.95,23.57-6.43,33.96-9.22,52.8-14.57,65.13-18.45,2.25-.7,4.19-1.24,4.26-1.16h0ZM247.33,458.27h.08c.31.78-12.25,35.65-16.83,46.66-1.01,2.48-1.39,3.1-1.94,3.02-1.32-.08-19.54-2.63-30.63-4.26-19.31-2.94-51.72-8.6-59.86-10.46l-1.86-.39,11.55-2.64c24.81-5.58,36.75-8.6,48.85-12.32,15.28-4.65,30.4-10.46,45.67-17.59,2.4-1.09,4.42-1.94,4.96-2.02h0Z" style="fill: url(#b);"/>
  <path d="M189.72,0c-1.71-.23-29.23,9.69-46.99,16.9-23.96,9.77-42.57,19.07-54.04,27.13-4.26,3.02-9.62,8.37-10.47,10.46-.31.78-.47,1.71-.47,2.64l10.39,9.84,24.73,7.91,58.85,10.54,67.3,11.55.7-5.81c-.23,0-.39-.08-.62-.08l-8.84-1.4-1.78-3.18c-9.15-16.12-19.23-36.12-25.12-49.6-4.57-10.46-8.92-22.55-11.32-31.23-1.32-5.27-1.47-5.58-2.32-5.66h0s0,0,0,0h0ZM188.48,3.96h.08c.08.08.39,2.25.7,4.8,1.32,10.85,3.72,21.31,7.52,32.63,2.87,8.53,2.87,8.06-.47,7.05-7.91-2.17-43.34-8.29-69.01-11.86-4.11-.54-7.6-1.09-7.6-1.16-.31-.31,18.53-10.15,26.83-14.03,10.62-4.88,39.78-17.05,41.95-17.44ZM113.73,38.68l3.03,1.01c16.44,5.58,57.76,13.49,80.56,15.35,2.56.23,4.73.47,4.81.47.08.08-2.09,1.24-4.88,2.56-11.01,5.5-23.11,12.25-31.48,17.44-2.48,1.55-4.73,2.79-5.04,2.79s-1.94-.31-3.64-.54l-3.1-.47-7.75-7.6c-13.65-13.25-24.35-23.48-28.46-27.36l-4.03-3.64ZM110.63,41.08l10.93,13.64c5.97,7.52,12.02,14.88,13.34,16.51,1.32,1.63,2.4,2.95,2.33,3.02-.31.23-15.82-2.79-24.04-4.65-8.45-1.94-11.94-2.87-17.14-4.49l-4.26-1.4v-1.09c.08-5.19,6.67-12.94,17.83-20.85,0,0,1.01-.7,1.01-.7ZM203.52,59.68c.31,0,.7.7,1.63,2.79,2.64,5.81,10.86,21.47,12.87,24.49.62,1.01,1.71,1.09-9.23-.7-26.28-4.26-34.74-5.66-34.74-5.81,0-.08.78-.62,1.78-1.16,8.14-4.49,16.36-10.23,23.65-16.35,1.78-1.47,3.41-2.87,3.72-3.1.08-.15.23-.23.31-.15Z" style="fill: url(#c);"/>
  <path d="M78.76,53.4s-1.7,2.71-.08,6.74c1.01,2.48,3.95,5.5,7.29,8.6,0,0,34.5,33.64,38.69,38.44,19.07,22.01,27.37,43.71,28.15,73.63.47,19.22-3.18,36.12-12.25,55.72-16.13,35.19-50.17,74.01-102.66,117.11l7.68-2.56c4.96-3.72,11.71-7.67,27.53-16.35,36.52-20,77.61-38.36,128.01-57.27,72.57-27.28,191.91-59.21,259.83-69.6l7.06-1.09-1.09-1.71c-6.2-9.61-10.47-15.58-15.59-21.93-14.89-18.45-32.95-33.4-55.05-45.8-30.39-16.97-69.71-30.22-119.49-40.07-9.38-1.86-30.01-5.43-46.75-7.98-35.51-5.5-58.46-9.3-83.74-13.64-9.07-1.55-22.64-3.88-31.64-5.81-4.65-1.01-13.57-3.1-20.55-5.5-5.58-2.17-13.65-4.34-15.35-10.93h0ZM98.77,72.78c.08-.08,1.32.39,2.95.93,2.95,1.01,6.75,2.17,11.24,3.41,3.4.94,6.81,1.84,10.23,2.71,4.65,1.16,8.53,2.25,8.61,2.25.54.54,8.38,25.57,11.01,35.18,1.01,3.64,1.78,6.74,1.71,6.74-.08.08-.93-1.24-1.94-3.02-9.07-15.97-23.42-32.16-40.01-45.18-2.17-1.55-3.8-2.94-3.8-3.02ZM136.92,83.32c.39,0,2.09.23,4.19.7,13.18,2.94,36.83,7.44,51.95,10,2.56.39,4.58.85,4.58,1.01s-.93.7-2.09,1.32c-2.56,1.32-12.87,7.44-16.28,9.76-8.61,5.74-16.36,11.93-21.94,17.51-2.25,2.25-4.19,4.11-4.19,4.11,0,0-.46-1.32-.85-2.95-2.79-10.77-8.61-26.74-13.88-37.98-.85-1.78-1.55-3.41-1.55-3.56,0,.15,0,.08.08.08h0ZM204.06,96.11c.47.15,1.24,2.79,2.79,8.6,2.87,11.24,4.19,23.79,3.72,35.5-.16,3.26-.31,6.28-.47,6.67l-.23.77-4.03-1.32c-8.3-2.64-21.79-6.59-33.34-9.84-6.59-1.78-11.94-3.41-11.94-3.56,0-.47,9.62-10.08,13.72-13.72,7.83-6.9,29.07-23.33,29.77-23.1h0ZM209.41,96.88c.23-.23,32.1,5.27,46.6,8.06,10.78,2.09,26.44,5.35,27.37,5.74.47.15-1.16,1.08-6.36,3.41-20.47,9.22-35.67,17.51-50.79,27.59-3.95,2.64-7.29,4.8-7.37,4.8s-.15-2.25-.15-4.96c0-14.72-2.95-29.61-8.38-42.16-.54-1.24-1.01-2.4-.93-2.48ZM291.83,113.16c.23.23-.78,6.51-1.71,10.23-2.79,11.55-10.31,28.68-19.54,44.8-1.63,2.87-3.1,5.19-3.26,5.27-.15.08-2.25-1.09-4.65-2.48-8.99-5.27-19.23-10.23-30.39-14.88-3.1-1.32-5.81-2.4-5.89-2.56-.54-.47,24.42-16.97,37.61-24.88,10.47-6.35,27.53-15.81,27.84-15.5ZM297.73,114.09c.7,0,14.81,3.88,22.18,6.05,18.22,5.43,39.16,13.1,52.8,19.3l5.66,2.56-3.95.93c-33.34,7.67-61.87,16.51-89.4,27.67-2.25.93-4.26,1.71-4.42,1.71s.62-1.78,1.63-3.95c8.3-17.59,13.65-35.96,14.96-51.62.08-1.47.31-2.63.54-2.63h0ZM157.23,146.33c.23-.23,11.01,2.33,16.83,3.95,8.84,2.48,27.6,8.76,27.6,9.22,0,.08-2.09,1.86-4.57,4.03-10.16,8.45-19.93,17.36-31.64,28.67-3.49,3.33-6.43,6.05-6.59,6.05s-.23-.47-.16-1.09c1.78-13.02,1.4-29.76-1.08-46.73-.23-2.17-.47-4.03-.39-4.11ZM383.72,146.56c.15.15-4.96,8.21-8.22,12.79-4.65,6.66-11.48,15.5-26.91,34.88-8.14,10.23-17.29,21.78-20.31,25.65-3.1,3.87-5.66,7.13-5.74,7.13s-1.08-1.39-2.17-3.1c-8.68-13.02-19.08-24.41-31.4-34.64-2.33-1.94-4.88-4.03-5.74-4.65-.85-.62-1.55-1.24-1.55-1.32,0-.23,13.18-5.89,23.18-9.92,17.52-7.13,41.4-15.66,59.32-21.16,9.38-2.94,19.38-5.81,19.54-5.66h0ZM389.69,148.11c.31-.08,2.17.85,4.42,2.17,18.84,10.77,37.29,24.65,51.87,38.91,4.11,4.03,14.27,14.57,14.11,14.65,0,0-3.57.31-7.75.62-32.64,2.48-74.44,9.38-114.6,19.06-2.71.62-5.12,1.16-5.27,1.16s2.87-3.02,6.67-6.66c23.57-22.71,34.35-37.05,47.06-62.62,1.78-3.8,3.33-7.05,3.49-7.28q-.08,0,0,0h0ZM217.01,165.78c1.09.23,11.17,4.96,18.76,8.76,6.98,3.49,17.45,9.07,17.99,9.53.08.08-3.65,2.01-8.22,4.26-14.58,7.28-27.06,14.18-40.09,22.09-3.72,2.25-6.82,4.11-6.9,4.11-.31,0-.23-.31,1.86-4.11,6.98-12.71,12.56-27.9,15.74-42.7.31-1.16.62-1.94.85-1.94h0ZM206.93,167.64c.23.23-2.4,9.76-4.03,14.96-3.18,9.84-8.53,22.17-13.72,31.47-1.24,2.17-3.1,5.35-4.11,7.13l-1.94,3.1-4.34-4.18c-5.04-4.88-9.15-7.91-14.42-10.62-2.09-1.08-3.72-2.01-3.72-2.17,0-.62,13.26-12.63,23.42-21.31,7.29-6.28,22.64-18.6,22.87-18.37h0ZM268.57,192.98l3.8,2.48c8.68,5.66,18.92,13.18,26.75,19.76,4.42,3.64,12.95,11.32,14.65,13.18l.93,1.01-6.28,1.78c-35.51,9.84-62.96,18.6-94.98,30.38-3.57,1.32-6.59,2.4-6.82,2.4-.46,0-.85.39,7.13-6.98,20.47-18.83,38.61-39.6,52.11-59.83l2.71-4.18h0ZM252.37,197.01c.15.15-10.47,15.11-16.83,23.56-7.6,10.08-21.09,26.97-30.39,37.97-3.88,4.57-7.21,8.37-7.37,8.45-.23.08-.31-1.09-.31-2.87,0-9.38-2.4-19.38-6.59-27.9-1.78-3.56-2.09-4.42-1.7-4.8,1.47-1.32,24.04-14.18,38.3-21.86,9.61-5.11,24.66-12.71,24.89-12.55h0ZM154.36,221.04c.23,0,2.02.93,4.03,2.01,4.96,2.71,9.38,5.73,13.34,8.99.15.15-1.86,1.78-4.5,3.72-7.37,5.27-18.53,13.72-25.04,18.91-6.83,5.43-7.06,5.58-6.28,4.42,5.12-7.83,7.68-12.25,10.39-17.9,2.4-5.04,4.81-11.01,6.51-16.2.62-2.25,1.4-3.95,1.55-3.95h0ZM180.49,241.5c.39-.08.85.62,2.95,3.72,4.42,6.59,7.83,15.42,8.69,22.55l.15,1.55-10.62,4.11c-19,7.36-36.52,14.65-48.39,20.07-3.33,1.55-9.15,4.34-12.95,6.2-3.8,1.94-6.9,3.41-6.9,3.33s2.4-1.86,5.35-4.03c23.19-16.82,43.27-35.26,58.31-53.71,1.63-1.94,3.1-3.72,3.26-3.8h.16s0,0,0,0ZM168.47,244.44c.31.31-8.53,10.31-14.58,16.43-14.96,15.27-29.77,27.2-48.15,38.83-2.33,1.47-4.42,2.79-4.65,2.94-.54.31.15-.47,8.22-9.22,5.12-5.5,8.99-10.15,13.41-15.89,2.95-3.8,3.49-4.34,7.75-7.36,11.4-8.22,37.68-26.04,37.99-25.73Z" style="fill: url(#d);"/>
</svg>