<?xml version="1.0" encoding="UTF-8"?>
<svg id="a" data-name="Layer 1" xmlns="http://www.w3.org/2000/svg" viewBox="0 0 499 512">
  <g id="b" data-name="Layer 1">
    <g>
      <path d="M297.62,9.25c-21.53-3.4-44.19-4.53-65.73-1.13-12.47,2.27-24.93,7.93-35.13,13.59C161.64,10.38,121.98,3.59,85.71,10.38c-26.06,4.53-50.99,20.39-64.59,44.17C4.12,82.87.73,116.85,2.99,149.69c4.53,36.24,13.6,72.49,23.8,107.6,9.07,30.58,19.26,61.16,36.26,88.34,9.07,14.72,22.66,30.58,40.79,35.11,14.73,3.4,29.46-1.13,40.79-10.19,5.67,5.66,12.47,10.19,20.4,12.46,21.53,7.93,45.33,7.93,66.86-1.13,1.13,29.45,0,60.03,11.33,87.21,4.53,13.59,11.33,26.05,23.8,33.98,13.6,9.06,29.46,10.19,45.33,7.93,13.6-2.27,28.33-6.8,39.66-13.59,12.47-7.93,22.66-19.25,28.33-32.85,13.6-30.58,14.73-63.43,15.86-96.27,31.73,2.27,64.59-5.66,88.39-27.18,9.07-7.93,17-20.39,13.6-32.85-3.4-11.33-15.86-19.25-27.2-18.12-12.47,1.13-23.8,4.53-36.26,4.53,27.2-47.57,48.73-98.54,57.79-151.77,3.4-22.65,6.8-45.3,0-67.96-3.4-12.46-12.47-22.65-21.53-31.71-20.4-20.39-48.73-33.98-77.06-39.64-32.86-6.8-65.73-3.4-96.32,5.66Z" style="fill: #fff;"/>
      <path d="M296.49,22.84c34-10.19,70.26-13.59,104.25-3.4,27.2,7.93,52.13,23.78,69.12,46.44,6.8,9.06,9.07,21.52,9.07,32.85,1.13,20.39-3.4,40.77-7.93,60.03-12.47,52.1-35.13,100.8-63.46,146.11,15.86,6.8,34,3.4,49.86,1.13,6.8-1.13,15.86-3.4,20.4,3.4s0,14.72-4.53,19.25c-23.8,23.78-60.06,29.45-91.79,23.78-3.4,28.32-6.8,56.63-11.33,86.08-2.27,15.86-7.93,32.85-20.4,43.04-11.33,10.19-27.2,14.72-41.93,16.99s-32.86,1.13-44.19-10.19c-12.47-11.33-20.4-28.32-21.53-44.17-3.4-28.32-3.4-57.76-3.4-86.08-13.6,11.33-31.73,18.12-49.86,16.99-12.47-1.13-27.2-3.4-36.26-12.46-5.67-4.53-4.53-13.59,1.13-18.12,10.2-7.93,23.8-6.8,35.13-11.33,9.07-2.27,13.6-11.33,18.13-16.99-10.2-1.13-20.4-3.4-28.33-7.93-13.6,14.72-27.2,30.58-39.66,45.3-7.93,9.06-18.13,16.99-30.6,14.72-13.6-2.27-23.8-12.46-31.73-22.65-14.73-21.52-24.93-46.44-32.86-71.35-12.47-40.77-22.66-81.55-28.33-123.45-3.4-31.71,0-65.69,18.13-91.74,14.73-21.52,39.66-32.85,64.59-35.11,34-3.4,67.99,3.4,99.72,14.72,26.06-16.99,60.06-20.39,90.66-13.59,3.4-2.27,5.67-1.13,7.93-2.27ZM321.42,31.9c6.8,4.53,13.6,7.93,20.4,12.46,27.2,18.12,48.73,44.17,61.19,73.62,3.4,9.06,7.93,16.99,6.8,27.18,0,19.25-6.8,38.51-4.53,57.76,2.27,20.39,6.8,41.91,1.13,62.29-1.13,6.8-5.67,13.59-7.93,20.39,0,1.13,1.13,3.4,1.13,3.4,2.27-3.4,4.53-6.8,6.8-10.19,21.53-35.11,37.4-73.62,48.73-113.26,5.67-21.52,10.2-44.17,10.2-66.82,0-9.06-1.13-19.25-6.8-27.18-12.47-15.86-29.46-28.32-48.73-36.24-28.33-9.06-58.93-10.19-88.39-3.4ZM242.1,34.17c-21.53,2.27-41.93,14.72-54.39,31.71-17,23.78-24.93,53.23-27.2,81.55,18.13-7.93,37.4-15.86,57.79-11.33,12.47,3.4,22.66,14.72,24.93,27.18,5.67,26.05,9.07,52.1,3.4,78.15-4.53,20.39-17,38.51-21.53,60.03,5.67,0,11.33,1.13,15.86,3.4,10.2,5.66,15.86,16.99,14.73,28.32-1.13,28.32-1.13,56.63,1.13,84.95,1.13,11.33,1.13,23.78,4.53,35.11,4.53,13.59,13.6,27.18,28.33,30.58,15.86,2.27,31.73-2.27,46.46-9.06,13.6-6.8,20.4-22.65,22.66-37.38,4.53-30.58,7.93-61.16,11.33-91.74,1.13-11.33-1.13-22.65,5.67-32.85,3.4-6.8,10.2-9.06,15.86-12.46-4.53-6.8-10.2-13.59-14.73-20.39-14.73-31.71-35.13-61.16-41.93-95.14-2.27-14.72-1.13-31.71,11.33-41.91,13.6-11.33,31.73-10.19,48.73-10.19-10.2-28.32-28.33-53.23-50.99-71.35-29.46-21.52-66.86-31.71-101.99-27.18ZM91.38,36.43c-19.26,3.4-38.53,14.72-48.73,32.85-13.6,23.78-14.73,50.97-12.47,77.02,4.53,33.98,12.47,67.96,22.66,101.93,9.07,28.32,18.13,56.63,34,81.55,5.67,9.06,12.47,18.12,22.66,21.52,9.07,2.27,15.86-5.66,21.53-11.33,11.33-14.72,24.93-28.32,37.4-43.04-18.13-15.86-27.2-40.77-24.93-65.69,2.27-18.12,3.4-37.38,2.27-56.63-2.27-26.05,2.27-53.23,10.2-79.28,5.67-19.25,15.86-36.24,29.46-50.97-30.6-6.8-63.46-13.59-94.05-7.93ZM355.41,153.09c-9.07,6.8-9.07,20.39-6.8,30.58,6.8,32.85,26.06,60.03,39.66,89.48,11.33-21.52,4.53-46.44,2.27-70.22-2.27-19.25,3.4-37.38,4.53-55.5-12.47,0-27.2-2.27-39.66,5.66ZM159.37,165.55c0,15.86,1.13,31.71,0,46.44-1.13,13.59-4.53,27.18-1.13,40.77,4.53,24.92,26.06,45.3,52.13,45.3,3.4-12.46,7.93-24.92,13.6-36.24,15.86-30.58,12.47-65.69,4.53-97.4-2.27-9.06-10.2-15.86-19.26-15.86-18.13,0-35.13,7.93-49.86,16.99ZM389.41,318.45c-4.53,4.53-4.53,11.33-4.53,16.99,10.2,3.4,21.53,3.4,32.86,2.27,15.86-2.27,32.86-6.8,45.33-19.25-19.26,2.27-40.79,6.8-60.06-2.27-4.53-2.27-10.2,0-13.6,2.27ZM202.43,341.1c-11.33,6.8-24.93,5.66-35.13,11.33,22.66,11.33,55.53,7.93,71.39-13.59,7.93-7.93,0-23.78-10.2-22.65-11.33,6.8-15.86,19.25-26.06,24.92Z" style="fill: #fff;"/>
      <path d="M359.95,157.62c6.8-4.53,15.86-4.53,22.66-2.27,0,9.06-11.33,15.86-19.26,11.33-2.27-1.13-6.8-5.66-3.4-9.06Z" style="fill: #fff;"/>
      <path d="M200.17,158.75c6.8-2.27,14.73-1.13,20.4,3.4,3.4,3.4,0,9.06-3.4,10.19-7.93,5.66-20.4,0-21.53-9.06,0-2.27,2.27-4.53,4.53-4.53Z" style="fill: #fff;"/>
      <path d="M321.42,31.9c28.33-6.8,60.06-5.66,87.26,4.53,19.26,6.8,36.26,20.39,48.73,36.24,6.8,7.93,6.8,18.12,6.8,27.18,0,22.65-4.53,44.17-10.2,66.82-11.33,39.64-27.2,78.15-48.73,113.26-2.27,3.4-4.53,6.8-6.8,10.19,0-1.13-1.13-3.4-1.13-3.4,2.27-6.8,6.8-13.59,7.93-20.39,5.67-20.39,1.13-41.91-1.13-62.29-2.27-19.25,4.53-38.51,4.53-57.76,1.13-9.06-3.4-18.12-6.8-27.18-13.6-29.45-34-55.5-61.19-73.62-4.53-5.66-12.47-9.06-19.26-13.59Z" style="fill: #326690;"/>
      <path d="M242.1,34.17c35.13-4.53,72.52,5.66,100.85,27.18,22.66,18.12,41.93,43.04,50.99,71.35-15.86,0-35.13-1.13-48.73,10.19-12.47,10.19-13.6,27.18-11.33,41.91,6.8,35.11,27.2,64.56,41.93,95.14,3.4,7.93,9.07,13.59,14.73,20.39-6.8,3.4-12.47,5.66-15.86,12.46-5.67,10.19-3.4,21.52-5.67,32.85-3.4,30.58-6.8,61.16-11.33,91.74-2.27,14.72-9.07,30.58-22.66,37.38-13.6,6.8-30.6,11.33-46.46,9.06-14.73-2.27-24.93-16.99-28.33-30.58-3.4-11.33-3.4-23.78-4.53-35.11-1.13-28.32-1.13-56.63-1.13-84.95,1.13-11.33-4.53-22.65-14.73-28.32-4.53-2.27-10.2-3.4-15.86-3.4,4.53-20.39,17-38.51,21.53-60.03,5.67-26.05,2.27-52.1-3.4-78.15-2.27-12.46-12.47-23.78-24.93-27.18-20.4-4.53-39.66,2.27-57.79,11.33,2.27-28.32,10.2-57.76,27.2-81.55,13.6-16.99,34-28.32,55.53-31.71Z" style="fill: #326690;"/>
      <path d="M91.38,36.43c31.73-5.66,63.46,0,94.05,9.06-13.6,14.72-23.8,31.71-29.46,50.97-7.93,24.92-11.33,52.1-10.2,79.28,1.13,19.25,1.13,37.38-2.27,56.63-3.4,23.78,6.8,48.7,24.93,65.69-12.47,14.72-24.93,28.32-37.4,43.04-5.67,6.8-12.47,13.59-21.53,11.33-10.2-3.4-17-12.46-22.66-21.52-15.86-24.92-24.93-53.23-34-81.55-10.2-32.85-18.13-66.82-22.66-101.93-2.27-26.05-1.13-54.37,12.47-77.02,10.2-18.12,28.33-29.45,48.73-33.98Z" style="fill: #326690;"/>
      <path d="M355.41,153.09c11.33-7.93,27.2-6.8,39.66-5.66-1.13,18.12-6.8,36.24-4.53,55.5,2.27,22.65,7.93,47.57-2.27,70.22-14.73-29.45-34-56.63-39.66-89.48-1.13-10.19-1.13-22.65,6.8-30.58ZM359.95,157.62c-3.4,3.4,0,7.93,3.4,9.06,7.93,4.53,19.26-2.27,19.26-11.33-6.8-2.27-15.86-2.27-22.66,2.27Z" style="fill: #326690;"/>
      <path d="M159.37,165.55c14.73-9.06,31.73-16.99,48.73-15.86,9.07,0,17,6.8,19.26,15.86,7.93,31.71,10.2,66.82-4.53,97.4-5.67,11.33-10.2,23.78-13.6,36.24-26.06,0-47.59-21.52-52.13-45.3-3.4-13.59,1.13-27.18,1.13-40.77,2.27-16.99,1.13-31.71,1.13-47.57ZM200.17,158.75c-2.27,1.13-4.53,2.27-4.53,4.53,1.13,9.06,13.6,14.72,21.53,9.06,3.4-2.27,6.8-6.8,3.4-10.19-5.67-4.53-13.6-5.66-20.4-3.4Z" style="fill: #326690;"/>
      <path d="M389.41,318.45c3.4-2.27,9.07-5.66,13.6-2.27,18.13,10.19,39.66,4.53,60.06,2.27-12.47,11.33-28.33,16.99-45.33,19.25-11.33,1.13-22.66,2.27-32.86-2.27,0-5.66,0-12.46,4.53-16.99Z" style="fill: #326690;"/>
      <path d="M202.43,341.1c10.2-5.66,14.73-18.12,24.93-24.92,10.2-1.13,19.26,14.72,10.2,22.65-15.86,21.52-48.73,26.05-71.39,13.59,11.33-4.53,24.93-4.53,36.26-11.33Z" style="fill: #326690;"/>
      <path d="M297.62,9.25c30.6-7.93,63.46-11.33,95.19-5.66,28.33,4.53,55.53,19.25,77.06,39.64,9.07,9.06,18.13,19.25,21.53,31.71,6.8,22.65,3.4,45.3,0,67.96-10.2,53.23-30.6,104.2-57.79,151.77,12.47,0,23.8-3.4,36.26-4.53,11.33-1.13,24.93,6.8,27.2,18.12,3.4,12.46-4.53,24.92-13.6,32.85-24.93,21.52-58.93,28.32-89.52,27.18-2.27,32.85-2.27,65.69-15.86,96.27-6.8,13.59-15.86,24.92-28.33,32.85-12.47,7.93-26.06,11.33-39.66,13.59-14.73,2.27-31.73,1.13-45.33-7.93-12.47-7.93-19.26-20.39-23.8-33.98-10.2-28.32-9.07-57.76-11.33-87.21-21.53,9.06-45.33,9.06-66.86,1.13-7.93-2.27-14.73-6.8-20.4-12.46-11.33,9.06-26.06,13.59-40.79,10.19-18.13-4.53-30.6-20.39-40.79-35.11-17-27.18-27.2-57.76-36.26-88.34C14.32,222.18,5.26,187.07.73,149.69-1.54,116.85.73,82.87,18.86,54.56,32.45,31.9,57.38,16.05,83.45,10.38c37.4-7.93,75.92,0,111.05,10.19,11.33-5.66,22.66-11.33,35.13-13.59,23.8-3.4,46.46-1.13,67.99,2.27ZM296.49,22.84c-2.27,1.13-5.67-1.13-7.93-1.13-30.6-6.8-64.59-3.4-90.66,13.59-31.73-11.33-65.73-18.12-99.72-14.72-24.93,2.27-50.99,14.72-64.59,35.11-18.13,27.18-20.4,61.16-18.13,91.74,5.67,41.91,15.86,82.68,28.33,122.32,9.07,24.92,18.13,49.83,32.86,71.35,7.93,10.19,18.13,21.52,31.73,22.65,12.47,1.13,22.66-5.66,30.6-14.72,13.6-15.86,26.06-30.58,39.66-45.3,9.07,4.53,19.26,6.8,28.33,7.93-5.67,6.8-10.2,14.72-18.13,16.99-11.33,4.53-24.93,3.4-35.13,11.33-5.67,4.53-6.8,13.59-1.13,18.12,9.07,9.06,23.8,11.33,36.26,12.46,18.13,1.13,36.26-4.53,49.86-16.99,0,28.32,0,57.76,3.4,86.08,1.13,16.99,9.07,33.98,21.53,44.17,11.33,10.19,29.46,12.46,44.19,10.19,14.73-3.4,30.6-7.93,41.93-16.99,12.47-11.33,18.13-27.18,20.4-43.04,4.53-28.32,7.93-56.63,11.33-86.08,31.73,5.66,67.99-1.13,91.79-23.78,4.53-4.53,10.2-13.59,4.53-19.25-4.53-5.66-13.6-4.53-20.4-3.4-15.86,3.4-34,6.8-49.86-1.13,28.33-45.3,50.99-94.01,63.46-146.11,4.53-19.25,7.93-39.64,7.93-60.03-1.13-11.33-2.27-23.78-9.07-32.85-17-22.65-41.93-38.51-69.12-46.44-32.86-4.53-70.26-2.27-104.25,7.93Z"/>
    </g>
  </g>
</svg>
