<?xml version="1.0" encoding="UTF-8"?>
<svg xmlns="http://www.w3.org/2000/svg" viewBox="0 0 512 512">
  <path d="M256,1C115.17,1,1,115.17,1,256s114.17,255,255,255,255-114.17,255-255S396.83,1,256,1"/>
  <path d="M313.71,285.53l-22.82-22.82c-8.29-8.3-21.75-8.31-30.05-.01-8.3,8.29-8.31,21.75-.01,30.05l22.79,22.79,30.09-30.01ZM401.07,372.88l-22.41-22.41-30.08,30.02,22.44,22.44c4.15,4.16,9.58,6.23,15.03,6.23,11.73,0,21.25-9.49,21.26-21.23,0-5.65-2.24-11.06-6.23-15.05" style="fill: #fff100;"/>
  <path d="M256,383c-70.03,0-127-56.97-127-127s56.97-127,127-127,127,56.97,127,127-56.97,127-127,127M256,167.96c-48.6.05-87.99,39.44-88.04,88.04.05,48.6,39.44,87.99,88.04,88.04,48.6-.05,87.99-39.44,88.04-88.04-.07-48.59-39.45-87.97-88.04-88.04" style="fill: #fff100;"/>
</svg>