<?xml version="1.0" encoding="UTF-8"?>
<svg id="a" data-name="Layer 1" xmlns="http://www.w3.org/2000/svg" viewBox="0 0 511 512">
  <g id="b" data-name="Page-1">
    <g id="c" data-name="Group">
      <path id="d" data-name="Path" d="M439.15,390.21l-108.13-62.44c-15.19-8.74-34.62-3.54-43.41,11.64-3.41,5.98-4.74,12.56-4.1,18.96v122.02c0,17.44,14.18,31.61,31.67,31.61s31.63-14.17,31.63-31.61v-70.17l60.58,34.97c15.19,8.79,34.66,3.54,43.41-11.64,8.79-15.18,3.59-34.6-11.65-43.34" style="fill: #29b5e8;"/>
      <path id="e" data-name="Path2" d="M170.21,256.41c.18-11.27-5.75-21.76-15.51-27.42l-108.13-62.39c-4.7-2.71-10.08-4.14-15.47-4.14-11.09,0-21.41,5.94-26.93,15.51-8.56,14.82-3.45,33.82,11.37,42.38l62.33,35.93-62.33,35.98c-7.18,4.14-12.34,10.81-14.45,18.82-2.16,8.01-1.06,16.38,3.08,23.56,5.52,9.57,15.84,15.51,26.88,15.51,5.43,0,10.82-1.43,15.51-4.14l108.13-62.39c9.67-5.61,15.61-16.01,15.51-27.19" style="fill: #29b5e8;"/>
      <path id="f" data-name="Path3" d="M71.1,122.39l108.13,62.39c12.61,7.32,28.17,4.92,38.12-4.79,6.31-5.8,10.22-14.08,10.22-23.28V31.65c0-17.48-14.18-31.65-31.63-31.65s-31.67,14.17-31.67,31.65v71.18l-61.41-35.43c-15.19-8.79-34.62-3.59-43.41,11.59-8.79,15.18-3.54,34.6,11.65,43.39" style="fill: #29b5e8;"/>
      <path id="g" data-name="Combined-Shape" d="M314.26,261.48c0,2.39-1.38,5.71-3.08,7.45l-42.86,42.84c-1.7,1.7-5.06,3.08-7.46,3.08h-10.91c-2.39,0-5.75-1.38-7.46-3.08l-42.9-42.84c-1.7-1.75-3.08-5.06-3.08-7.45v-10.9c0-2.44,1.38-5.75,3.08-7.45l42.9-42.88c1.7-1.7,5.06-3.08,7.46-3.08h10.91c2.39,0,5.75,1.38,7.46,3.08l42.86,42.88c1.7,1.7,3.08,5.02,3.08,7.45v10.9ZM276,256.23v-.46c0-1.75-1.01-4.19-2.26-5.48l-12.66-12.61c-1.24-1.29-3.68-2.3-5.48-2.3h-.46c-1.75,0-4.19,1.01-5.48,2.3l-12.61,12.61c-1.24,1.24-2.26,3.68-2.26,5.48v.46c0,1.79,1.01,4.23,2.26,5.48l12.61,12.65c1.29,1.24,3.73,2.25,5.48,2.25h.46c1.8,0,4.24-1.01,5.48-2.25l12.66-12.65c1.24-1.24,2.26-3.68,2.26-5.48Z" style="fill: #29b5e8;"/>
      <path id="h" data-name="Path4" d="M331.01,184.78l108.13-62.39c15.19-8.74,20.44-28.2,11.65-43.39-8.79-15.18-28.22-20.38-43.41-11.59l-60.58,34.97V31.65c0-17.48-14.18-31.65-31.63-31.65s-31.67,14.17-31.67,31.65v122.57c-.6,6.35.64,12.97,4.1,18.96,8.79,15.18,28.22,20.38,43.41,11.59" style="fill: #29b5e8;"/>
      <path id="i" data-name="Path5" d="M200.92,324.09c-7.18-1.38-14.87-.23-21.68,3.68l-108.13,62.44c-15.19,8.74-20.44,28.16-11.65,43.34,8.79,15.23,28.22,20.43,43.41,11.64l61.41-35.43v70.63c0,17.44,14.18,31.61,31.67,31.61s31.63-14.17,31.63-31.61v-125.06c0-15.78-11.55-28.85-26.65-31.24" style="fill: #29b5e8;"/>
      <path id="j" data-name="Path6" d="M506.73,177.6c-8.75-15.23-28.22-20.43-43.41-11.64l-108.13,62.39c-10.36,5.98-16.07,16.93-15.88,28.07-.09,11.09,5.62,21.9,15.88,27.79l108.13,62.44c15.19,8.74,34.62,3.54,43.41-11.64,8.79-15.18,3.54-34.6-11.65-43.39l-61.23-35.34,61.23-35.34c15.24-8.74,20.44-28.16,11.65-43.34" style="fill: #29b5e8;"/>
    </g>
  </g>
</svg>
