<?xml version="1.0" encoding="UTF-8"?>
<svg id="a" data-name="svg2985" xmlns="http://www.w3.org/2000/svg" xmlns:xlink="http://www.w3.org/1999/xlink" viewBox="0 0 458 512">
  <defs>
    <linearGradient id="c" x1="-492.43" y1="222.99" x2="-463.78" y2="222.99" gradientTransform="translate(-2381.21 5697.64) rotate(90) scale(11.49 -11.49)" gradientUnits="userSpaceOnUse">
      <stop offset="0" stop-color="#97d9f6"/>
      <stop offset=".92" stop-color="#0f80cc"/>
      <stop offset="1" stop-color="#0f80cc"/>
    </linearGradient>
  </defs>
  <path id="b" data-name="solid-background" d="M360.58,22.72H39.17C17.62,22.72,0,40.34,0,61.87v354.3c0,21.53,17.62,39.15,39.17,39.15h211.69c-2.4-105.28,33.57-309.6,109.72-432.59Z" style="fill: #0f80cc;"/>
  <path id="d" data-name="gradient-background" d="M348.9,34.14H39.17c-15.3,0-27.74,12.44-27.74,27.73v328.45c70.15-26.91,175.43-50.13,248.23-49.08,14.63-76.46,57.62-226.29,89.25-307.1Z" style="fill: url(#c);"/>
  <path id="e" data-name="feather" d="M435.55,11.12c-22.01-19.62-48.67-11.74-74.97,11.59-3.9,3.47-7.8,7.31-11.68,11.42-45,47.71-86.77,136.1-99.74,203.6,5.06,10.25,9,23.32,11.6,33.31.67,2.56,1.27,4.97,1.75,7.01,1.14,4.84,1.76,7.98,1.76,7.98,0,0-.4-1.53-2.06-6.32-.31-.92-.67-1.93-1.08-3.11-.18-.49-.42-1.08-.69-1.72-2.94-6.82-11.05-21.22-14.63-27.48-3.06,9.01-5.76,17.44-8.02,25.07,10.32,18.87,16.6,51.2,16.6,51.2,0,0-.55-2.1-3.14-9.41-2.3-6.47-13.76-26.54-16.48-31.24-4.64,17.14-6.49,28.71-4.83,31.53,3.23,5.46,6.31,14.88,9.01,25.3,6.1,23.47,10.35,52.04,10.35,52.04,0,0,.14,1.89.37,4.81-.85,19.71-.34,40.14,1.19,58.61,2.02,24.45,5.83,45.45,10.68,56.69l3.29-1.8c-7.13-22.14-10.02-51.17-8.75-84.63,1.92-51.16,13.7-112.85,35.46-177.15,36.77-97.07,87.78-174.95,134.46-212.14-42.55,38.41-100.14,162.75-117.38,208.79-19.3,51.56-32.98,99.95-41.23,146.3,14.22-43.46,60.22-62.14,60.22-62.14,0,0,22.56-27.81,48.92-67.54-15.79,3.6-41.72,9.76-50.41,13.41-12.81,5.37-16.26,7.2-16.26,7.2,0,0,41.5-25.26,77.1-36.7,48.96-77.08,102.31-186.59,48.59-234.49" style="fill: #003b57;"/>
</svg>
