<?xml version="1.0" encoding="UTF-8"?>
<svg id="a" data-name="Layer 1" xmlns="http://www.w3.org/2000/svg" viewBox="0 0 348 512">
  <g id="b" data-name="Layer 2">
    <g id="c" data-name="Layer 3">
      <path d="M317.16,248.51c0-13.42-10.9-24.31-24.34-24.31s-24.34,10.88-24.34,24.31c.26,9.47,6.47,17.75,15.5,20.66v37.03c-10.61-27.13-30.46-49.65-56.07-63.6,3.73-8.1,7.55-15.07,11.2-21.47,13.95-20.6,29.32-40.2,46-58.66,9.17-10.86,17.85-21.07,24.91-29.98,19.8-24.79,41.54-61.42,37.49-83.13-1-6.16-4.72-11.55-10.14-14.67-27.51-16.2-64.91,36.46-101.66,87.26-24.34,33.54-36.92,81.02-42.68,107.68-11.27-2.47-22.78-3.72-34.32-3.73-16.78-.05-33.45,2.69-49.33,8.1-1.03-29.74-.14-59.51,2.68-89.13,8.11-77.05,4.54-122.26-10.47-137.74C97.68,2.43,91.8-.21,85.68.01c-44.3,2.19-39.27,134.34-38.54,149.41,1.78,36.14,16.23,80.05,24.99,104.36-20.45,16.15-35.34,38.27-42.6,63.28h-3.16c-13.92-.63-25.72,10.12-26.36,24.02,0,.09,0,.19-.01.28v41.89c.53,13.95,12.28,24.84,26.25,24.31.04,0,.08,0,.12,0h5.36c6.1,14.27,15.2,27.07,26.69,37.51l-8.11,7.13c-3.94,3.39-4.41,9.32-1.05,13.29,24.34,29.57,64.18,46.51,108.89,46.51s84.71-16.93,108.89-46.51c3.35-3.97,2.88-9.89-1.05-13.29l-8.11-7.13c11.53-10.67,20.63-23.68,26.69-38.16h6.09c13.97.59,25.77-10.24,26.36-24.19,0-.04,0-.08,0-.12v-41.57c-.25-9.72-6.38-18.31-15.5-21.71v-50.15c9.11-2.84,15.4-11.14,15.66-20.66Z" style="fill: #cdcccc;"/>
      <path d="M118.62,451.64c7.46-4.94-12.17-3.08-13.79-6.4-7.84-.69-15.61-2.08-23.21-4.13-13.79-3.65-46.9-25.85-50.47-47.16-3.57-21.31,0-61.74,14.93-86.05,9.35-14.81,21.4-27.73,35.54-38.08,0,0-28.97-68.79-31.4-120.72-2.43-51.94,1.62-144.38,35.54-146,33.92-1.62,28.97,84.91,23.21,141.22-3.42,37.39-3.96,74.99-1.62,112.46,14.45-4.58,29.47-7.09,44.63-7.45,13.35-.31,26.7.94,39.76,3.73,0,0,10.79-79.73,46.33-129.64,35.54-49.91,73.02-100.87,97.36-86.37,24.34,14.5-6.65,66.28-28.15,93.26-21.5,26.98-58.74,67.49-71.16,89.13-8.14,14.4-15.32,29.31-21.5,44.64,22.14,11.35,40.24,29.23,51.85,51.21,17.53,34.92,18.82,77.86,9.41,96.09-9.57,17.05-26.26,28.93-45.52,32.41-10.79.49-56.15,11.75-56.15,11.75l-55.58-3.89Z" style="fill: #fff;"/>
      <path d="M198.05,253.78s27.1-70.57,51.36-110.19c24.26-39.62,56.8-69.6,67.02-63.52,10.22,6.08-20.85,43.1-48.11,79.48-22.21,32.12-42.34,65.63-60.28,100.31l-9.98-6.08Z" style="fill: #dd00a1;"/>
      <path d="M89.25,265.85l8.11-6s-1.14-70.57,0-113.43,3.33-96.42-11.03-95.93-24.34,41.89-18.74,100.31c4.03,38.88,11.28,77.36,21.66,115.05Z" style="fill: #dd00a1;"/>
      <ellipse cx="65.07" cy="401.4" rx="15.74" ry="15.72" style="fill: #f9d8d2;"/>
      <ellipse cx="251.12" cy="401.4" rx="15.74" ry="15.72" style="fill: #f9d8d2;"/>
      <path d="M184.18,400.11c-.69-.41-1.59-.18-2,.52,0,.02-.02.03-.03.05,0,0-4.71,8.1-11.52,8.59-4.67-.14-9.07-2.19-12.17-5.67v-11.99c4.38-2.43,11.44-9.72,11.44-12.23-1.27-5.54-6.42-9.3-12.09-8.83-8.11,0-13.79,5.27-13.79,9.64s8.93,10.05,11.44,11.67v11.83c-2.59,3.28-6.45,5.32-10.63,5.59-6.41,0-11.28-8.75-11.36-8.83-.39-.72-1.29-1.01-2.03-.65-.73.42-1.02,1.34-.65,2.11,0,0,5.76,10.45,14.04,10.45,4.72-.21,9.16-2.35,12.25-5.91,3.37,3.52,7.95,5.64,12.82,5.91h.97c5.92-1.16,11.01-4.91,13.87-10.21.41-.69.18-1.59-.52-2-.02,0-.03-.02-.05-.03Z" style="fill: #10110e;"/>
      <path d="M81.62,269.98s-22.47-56.72-26.78-86.37-8.11-79.16-2.43-112.14c2.44-15.19,5.75-30.23,9.9-45.05,0,0-10.47,76.89-6.57,110.52,3.89,33.62,25.88,133.04,25.88,133.04Z" style="fill: #e5e5e5;"/>
      <path d="M191.73,253.05s16.23-85.8,39.84-119.51c23.61-33.71,52.9-74.62,67.75-84.91l14.85-10.37s-59.55,62.39-82.6,113.43-39.84,101.36-39.84,101.36Z" style="fill: #e5e5e5;"/>
      <path d="M97.36,350.28c-6.81-.04-12.37,5.43-12.41,12.23-.04,6.8,5.44,12.35,12.25,12.4,6.81.04,12.37-5.43,12.41-12.23,0-.03,0-.05,0-.08,0-6.77-5.47-12.27-12.25-12.32ZM100.85,361.7c-1.84,0-3.33-1.49-3.33-3.32,0-1.83,1.49-3.32,3.33-3.32,1.83,0,3.32,1.49,3.32,3.32,0,1.83-1.49,3.32-3.32,3.33-.06,0-.11,0-.17,0h.16Z" style="fill: #10110e;"/>
      <path d="M218.42,350.28c-6.81,0-12.33,5.51-12.33,12.32,0,6.8,5.52,12.32,12.33,12.32s12.33-5.51,12.33-12.32-5.52-12.32-12.33-12.32h0ZM221.91,361.7c-1.82-.04-3.28-1.51-3.33-3.32.29-1.86,2.03-3.13,3.89-2.84,1.47.23,2.61,1.38,2.84,2.84-.04,1.85-1.56,3.32-3.41,3.32Z" style="fill: #10110e;"/>
      <ellipse cx="160.08" cy="367.21" rx="114.4" ry="82.32" style="fill: #8accce; isolation: isolate; opacity: .2;"/>
      <path d="M298.58,321.43v-54.04c8.78-1.93,15.17-9.51,15.58-18.47-1.26-11.79-11.86-20.33-23.66-19.07-10.07,1.07-18.02,9.02-19.09,19.07.38,8.95,6.74,16.53,15.5,18.47v52.67h-1.54c-16.23-56.23-64.18-91.15-126.74-91.15s-110.83,34.6-126.82,91.15h-5.44c-12.24-.6-22.67,8.77-23.37,20.99v41.89c.74,12.18,11.16,21.5,23.37,20.9h7.38c6.27,15.89,16.29,30.04,29.21,41.24l-10.55,9.4c-2.71,2.28-3.06,6.31-.78,9.02.02.02.03.04.05.06,23.69,28.6,62.56,45.37,106.53,45.37s82.84-16.2,106.53-45.37c2.31-2.68,2.01-6.72-.67-9.03-.02-.02-.04-.03-.06-.05l-10.55-9.4c12.86-11.25,22.87-25.38,29.21-41.24h8.11c12.21.6,22.63-8.72,23.37-20.9v-41.89c-.37-9.22-6.67-17.15-15.58-19.61ZM158.62,288.62c57.93,0,104.99,38.08,104.99,84.83,0,50.64-52.9,72.92-104.99,72.92s-104.99-22.69-104.99-72.92c0-46.75,47.06-84.83,104.99-84.83Z" style="fill: #fff;"/>
      <path d="M302.48,368.91h-15.58v-7.62c0-10.34-1.04-20.65-3.08-30.79h6.57c6.04-.41,11.26,4.15,11.67,10.18,0,.12.01.24.02.36l.41,27.87Z" style="fill: #515151;"/>
      <path d="M290.79,393.38h-8.11c1.54-5.72,2.71-11.54,3.49-17.42h16.23v6.97c-.21,5.99-5.25,10.68-11.25,10.47-.12,0-.24-.01-.36-.02Z" style="fill: #515151;"/>
      <path d="M158.62,498.14c-38.95,0-73.51-14.02-95.34-38.81l10.95-9.72c24.93,16.62,54.41,25.12,84.38,24.31,29.97.79,59.44-7.7,84.38-24.31l10.87,9.72c-21.74,24.79-56.39,38.81-95.25,38.81Z" style="fill: #515151;"/>
      <path d="M26.37,330.51h6.98c-2.03,10.14-3.06,20.45-3.08,30.79-.19,2.54-.19,5.08,0,7.62h-15.17v-27.87c-.11-5.73,4.45-10.46,10.18-10.57.37,0,.73,0,1.1.04Z" style="fill: #515151;"/>
      <path d="M158.62,281.65c-13.18.04-26.29,1.92-38.95,5.59v-42.21c12.67-3.59,25.78-5.36,38.95-5.27,13.14-.09,26.22,1.68,38.86,5.27v42.54c-12.58-3.93-25.68-5.92-38.86-5.91Z"/>
      <path d="M111.97,247.46v42.62c-38.95,14.26-66.13,46.43-66.13,83.37,0,47.88,45.52,80.29,112.78,80.29s112.78-32.41,112.78-80.29c0-36.95-27.26-69.11-66.13-83.37v-42.62c45.52,16.2,73.92,58.26,73.92,114.16,0,62.87-48.28,105.33-120.57,105.33s-120.57-42.21-120.57-105.33c0-55.91,28.4-97.8,73.92-114.16Z" style="fill: #515151;"/>
      <path d="M14.69,375.96h16.23c.74,5.88,1.91,11.71,3.49,17.42h-8.11c-6.04.41-11.26-4.15-11.67-10.17,0-.09-.01-.19-.02-.28l.08-6.97Z" style="fill: #515151;"/>
      <ellipse cx="292.74" cy="248.51" rx="9.74" ry="8.75" style="fill: #515151;"/>
    </g>
  </g>
</svg>
