<svg width="800" height="600" viewBox="0 0 800 600" fill="none" xmlns="http://www.w3.org/2000/svg">
<path d="M157.5 163.776C161.31 169.436 164.9 175.306 168.28 181.396C171.66 187.486 175.17 195.086 178.8 204.196C182.43 213.316 185.66 223.006 188.49 233.266C191.32 243.536 193.64 253.326 195.44 262.646C197.24 271.966 198.9 284.206 200.4 299.386H166.37L162.91 274.296L160.13 262.276L126.02 261.746L128.95 280.006L129.78 299.386H94.7697C93.8697 286.866 92.6897 276.326 91.2397 267.756C89.7897 259.196 88.1497 250.736 86.3197 242.396C84.4897 234.056 82.1197 225.516 79.2197 216.776C76.3097 208.036 73.4997 199.286 70.7697 190.516C68.0397 181.756 68.4697 174.906 72.0497 169.966C75.6297 165.036 79.3897 162.466 83.3197 162.266C87.2497 162.066 95.0497 161.976 106.72 162.006C118.39 162.036 135.32 162.616 157.51 163.776H157.5ZM152.92 233.876C150.11 222.456 147.8 214.576 145.97 210.246C144.14 205.916 140.87 198.416 136.17 187.746C118.94 186.596 109.76 187.156 108.64 189.436C107.51 191.716 107.39 195.126 108.26 199.656C109.14 204.186 112.7 215.576 118.97 233.806L152.93 233.886L152.92 233.876Z" fill="currentColor"/>
<path d="M187.48 164.826L186.43 163.176H228.65C259.35 164.276 276.21 165.216 279.21 165.996C282.22 166.776 284.92 167.996 287.32 169.676C289.72 171.356 292.27 173.996 294.95 177.606C297.63 181.216 300.45 185.656 303.4 190.946C306.35 196.226 309.52 203.396 312.9 212.436C316.28 221.476 319.56 232.136 322.74 244.406C325.92 256.676 327.91 264.516 328.71 267.926C329.51 271.336 329.84 274.446 329.69 277.276C329.54 280.106 329.1 283.036 328.38 286.066C327.65 289.096 326.31 291.546 324.36 293.426C322.41 295.306 319.58 296.806 315.87 297.936C312.16 299.066 281.79 299.806 224.74 300.156C222.89 283.626 220.95 271.286 218.92 263.116C216.89 254.956 214.75 246.446 212.5 237.606C210.25 228.766 207.03 218.586 202.85 207.066C198.67 195.546 193.55 181.476 187.49 164.846L187.48 164.826ZM258.33 269.186C275.66 269.186 285.35 268.836 287.4 268.136C289.45 267.436 290.82 266.116 291.49 264.196C292.17 262.266 291.65 258.096 289.95 251.686C288.25 245.276 286.53 238.976 284.8 232.796C283.07 226.606 280.78 220.536 277.93 214.576C275.08 208.616 272.61 203.986 270.53 200.676C268.45 197.366 266.26 194.736 263.96 192.786C261.66 190.836 258.21 189.686 253.63 189.326C249.05 188.976 241.57 188.796 231.2 188.796C235.21 196.856 238.14 202.996 239.99 207.206C241.84 211.416 243.67 215.876 245.47 220.576C247.27 225.286 249.14 230.616 251.07 236.576C253 242.536 254.58 248.146 255.8 253.406C257.03 258.666 257.87 263.926 258.32 269.186H258.33Z" fill="currentColor"/>
<path d="M349.76 298.706C347.96 279.176 346.55 265.826 345.55 258.666C344.55 251.506 342.98 243.766 340.85 235.456C338.72 227.146 336.42 218.756 333.94 210.286C331.46 201.826 328.79 193.746 325.94 186.056C323.09 178.366 320.33 170.946 317.68 163.776L345.55 163.176C377.35 163.626 395.9 164.776 401.18 166.636C406.46 168.486 410.42 171.296 413.05 175.046C415.68 178.806 417.68 182.746 419.06 186.876C420.44 191.006 421.44 195.896 422.06 201.526C422.69 207.156 421 212.056 416.99 216.216C421.6 218.516 425.19 220.986 427.77 223.616C430.35 226.246 432.63 229.536 434.61 233.496C436.59 237.456 438.47 242.266 440.24 247.916C442.02 253.576 443.58 259.986 444.94 267.146C446.29 274.306 446.63 279.656 445.95 283.186C445.27 286.716 443.51 290.186 440.66 293.596C437.8 297.006 434.59 298.896 431.01 299.266C427.43 299.646 417.37 299.826 400.85 299.826H351.19L349.76 298.696V298.706ZM366.07 208.106C376.84 208.456 383.28 208.096 385.38 207.016C387.48 205.936 389.27 204.416 390.75 202.436C392.23 200.456 392.71 198.246 392.21 195.786C391.71 193.336 390.63 191.356 388.98 189.846C387.33 188.336 384.95 187.356 381.84 186.876C378.73 186.396 373.96 186.086 367.53 185.936C361.09 185.786 357.94 186.026 358.06 186.646C358.18 187.276 359.15 189.626 360.95 193.706C362.75 197.786 364.46 202.586 366.06 208.096L366.07 208.106ZM381.17 274.366C390.49 274.366 397.77 274.196 403.03 273.836C408.29 273.486 411.08 271.366 411.41 267.486C411.74 263.606 411.25 259.436 409.95 254.976C408.65 250.516 407.06 247.116 405.18 244.756C403.3 242.406 400.11 240.966 395.6 240.436C391.09 239.906 386.41 239.736 381.55 239.906C376.69 240.086 374.4 240.436 374.68 240.956C374.95 241.486 375.69 244.726 376.9 250.686C378.1 256.646 379.53 264.536 381.18 274.356L381.17 274.366Z" fill="currentColor"/>
<path d="M526.7 164.456L534.66 184.516L536.16 189.246L537.06 192.706C520.08 192.306 507.14 192.106 498.26 192.106C489.38 192.106 484.4 192.496 483.35 193.266C482.3 194.046 481.66 195.366 481.43 197.246C481.2 199.126 481.68 202.426 482.86 207.166C484.04 211.896 485.65 217.986 487.71 225.426C489.76 232.866 491.39 239.116 492.59 244.166C493.79 249.226 494.78 252.946 495.56 255.326C496.34 257.706 497.04 259.406 497.66 260.436C498.29 261.466 499.88 263.036 502.43 265.166C504.98 267.296 508.62 268.356 513.32 268.356H559.52L561.77 278.726L564.1 299.616H486.3C483.42 299.616 479.59 298.076 474.81 294.996C470.03 291.916 466.93 288.676 465.53 285.266C464.13 281.856 462.71 276.236 461.28 268.396C459.85 260.556 457.79 251.206 455.08 240.336C452.38 229.466 449.88 220.306 447.6 212.836C445.32 205.376 443.4 199.266 441.85 194.506C440.3 189.746 439.21 186.416 438.58 184.516C437.95 182.616 437.34 180.426 436.74 177.946C436.14 175.466 437.33 172.416 440.31 168.776C443.29 165.146 447.67 163.226 453.46 163.026C459.25 162.826 468.27 162.826 480.54 163.026C492.81 163.226 508.19 163.706 526.67 164.456H526.7Z" fill="currentColor"/>
<path d="M94.1597 325.676L93.9797 324.306H128.35C152.89 325.226 166.22 326.006 168.34 326.646C170.46 327.296 172.15 328.306 173.42 329.706C174.68 331.096 175.67 333.296 176.39 336.286C177.1 339.286 177.58 342.976 177.83 347.366C178.07 351.756 177.72 357.706 176.76 365.206C175.8 372.716 174.1 381.566 171.65 391.756C169.2 401.946 167.6 408.456 166.85 411.286C166.1 414.116 165.09 416.706 163.82 419.056C162.56 421.406 161.01 423.836 159.17 426.356C157.34 428.876 155.24 430.906 152.87 432.466C150.51 434.026 147.59 435.276 144.13 436.206C140.66 437.146 115.63 437.756 69.0297 438.046C74.8997 424.906 78.5297 414.796 79.9197 407.726C81.3097 400.656 82.8997 393.446 84.6897 386.106C86.4797 378.766 88.0397 370.316 89.3697 360.746C90.6897 351.176 92.2897 339.496 94.1697 325.676H94.1597ZM109.02 412.336C123.13 412.336 131.17 412.046 133.14 411.466C135.12 410.886 136.77 409.796 138.09 408.186C139.41 406.586 140.7 403.126 141.94 397.796C143.18 392.476 144.36 387.246 145.49 382.106C146.61 376.966 147.23 371.926 147.36 366.976C147.48 362.026 147.38 358.176 147.05 355.436C146.72 352.686 146.02 350.506 144.94 348.886C143.86 347.266 141.52 346.306 137.94 346.016C134.35 345.726 128.79 345.576 121.25 345.576C120.6 352.276 120.09 357.366 119.72 360.866C119.35 364.356 118.95 368.066 118.5 371.976C118.05 375.886 117.25 380.316 116.08 385.266C114.92 390.216 113.9 394.876 113.02 399.246C112.14 403.616 110.81 407.986 109.01 412.346L109.02 412.336Z" fill="currentColor"/>
<path d="M171.74 438.106C178.59 422.426 183.6 410.176 186.78 401.356C189.96 392.536 192.7 383.816 195.01 375.186C197.31 366.556 199.23 357.676 200.76 348.546C202.29 339.416 203.28 331.166 203.73 323.806H245.31C266.84 324.386 279.07 326.296 282 329.516C284.94 332.736 286.1 336.996 285.49 342.276C284.88 347.556 283.93 353.406 282.65 359.806C281.37 366.216 280.32 370.566 279.5 372.876C278.68 375.186 277.06 378.126 274.64 381.706C272.21 385.286 265.95 389.156 255.84 393.316C261.75 405.836 265.81 420.916 268.01 438.556H235.6C234.34 429.616 232.63 422.986 230.49 418.686C228.35 414.376 224.34 409.066 218.47 402.746C217 407.616 215.76 411.286 214.74 413.756C213.72 416.226 210.36 424.356 204.65 438.116H171.75L171.74 438.106ZM224.08 376.526C232.97 376.526 238.86 376.176 241.75 375.466C244.64 374.756 246.82 373.406 248.26 371.406C249.71 369.406 250.69 367.606 251.2 366.006C251.71 364.406 252.63 361.036 253.95 355.896C255.27 350.756 254.57 347.696 251.84 346.696C249.11 345.696 242.36 345.346 231.6 345.636C230.46 353.086 229.06 359.736 227.41 365.606C225.76 371.476 224.65 375.106 224.08 376.526Z" fill="currentColor"/>
<path d="M279.48 437.606L285.6 423.876C289.19 411.566 291.68 402.256 293.09 395.956C294.5 389.656 295.86 382.876 297.19 375.616C298.51 368.356 299.51 361.416 300.19 354.776C300.86 348.146 301.32 342.456 301.57 337.716C301.81 332.976 301.9 328.396 301.81 323.986L332.45 324.926C331.72 338.196 331.02 348.696 330.37 356.436C329.72 364.176 328.4 372.856 326.43 382.486C324.45 392.116 322.16 401.026 319.55 409.226C316.94 417.426 313.5 426.886 309.22 437.616H279.5L279.48 437.606Z" fill="currentColor"/>
<path d="M346.41 324.676L375.64 324.736C376.13 334.176 376.11 345.136 375.58 357.616C375.05 370.096 372.54 387.546 368.06 409.966C378.46 394.246 385.23 382.576 388.39 374.966C391.55 367.356 394.33 359.756 396.74 352.166C399.15 344.576 401.76 335.416 404.57 324.676H434.66C432.46 333.206 430.05 341.506 427.44 349.576C424.83 357.646 421.13 367.126 416.34 378.026C411.55 388.926 405.04 400.056 396.8 411.406C388.56 422.766 381.12 431.456 374.48 437.486H336.08C339.1 421.676 340.99 410.146 341.77 402.886C342.54 395.626 343.49 387.886 344.61 379.676C345.73 371.466 346.35 362.616 346.48 353.126C346.6 343.646 346.66 336.616 346.66 332.036C346.66 327.456 346.6 325.316 346.48 325.606L346.42 324.666L346.41 324.676Z" fill="currentColor"/>
<path d="M416.96 436.986C422.1 424.546 426.12 414.116 429.04 405.696C431.96 397.276 434.33 389.316 436.16 381.826C437.99 374.336 439.63 366.706 441.08 358.926C442.53 351.146 444.39 339.916 446.68 325.236H476.09L526.54 325.296C526.05 335.326 525.13 343.116 523.79 348.696L472.36 348.256C471.34 355.706 470.32 361.946 469.3 366.976L520.73 367.416C519.39 373.986 517.31 381.626 514.49 390.316H462.82C458.87 402.756 456.15 410.536 454.69 413.656L507.4 414.096C504.26 421.876 500.84 429.676 497.13 437.496H416.65L416.96 436.996V436.986Z" fill="currentColor"/>
<path d="M514.69 438.106C521.54 422.426 526.55 410.176 529.73 401.356C532.91 392.536 535.65 383.816 537.96 375.186C540.26 366.556 542.18 357.676 543.71 348.546C545.24 339.416 546.23 331.166 546.68 323.806H588.26C609.79 324.386 622.02 326.296 624.95 329.516C627.89 332.736 629.05 336.996 628.44 342.276C627.83 347.556 626.88 353.406 625.6 359.806C624.32 366.216 623.27 370.566 622.45 372.876C621.63 375.186 620.01 378.126 617.59 381.706C615.16 385.286 608.9 389.156 598.79 393.316C604.7 405.836 608.76 420.916 610.96 438.556H578.55C577.29 429.616 575.58 422.986 573.44 418.686C571.3 414.386 567.29 409.066 561.42 402.746C559.95 407.616 558.71 411.286 557.69 413.756C556.67 416.226 553.31 424.356 547.6 438.116H514.7L514.69 438.106ZM567.04 376.526C575.93 376.526 581.82 376.176 584.71 375.466C587.6 374.756 589.77 373.406 591.22 371.406C592.67 369.406 593.64 367.606 594.16 366.006C594.67 364.406 595.59 361.036 596.91 355.896C598.24 350.756 597.53 347.696 594.8 346.696C592.07 345.696 585.32 345.346 574.56 345.636C573.42 353.086 572.02 359.736 570.37 365.606C568.72 371.476 567.61 375.106 567.04 376.526Z" fill="currentColor"/>
<path d="M705.16 324.736C715.39 324.736 722.24 326.066 725.71 328.726C729.17 331.386 730.75 335.076 730.45 339.806C730.14 344.526 729.5 349.696 728.52 355.306H700.33C702.49 347.856 700.58 344.136 694.58 344.136H678.71C674.12 344.136 671.54 345.326 670.97 347.696C670.4 350.066 669.69 353.146 668.83 356.926C667.97 360.716 667.87 363.386 668.52 364.946C669.17 366.506 670.54 367.766 672.62 368.716C674.7 369.676 679.39 369.936 686.69 369.496C693.99 369.056 700.27 369.726 705.56 371.496C710.84 373.266 714.67 376.996 717.06 382.696C719.44 388.396 719.17 396.316 716.23 406.466C713.29 416.616 710.24 423.676 707.06 427.646C703.88 431.616 696.81 434.936 685.84 437.596H650.49C627.33 438.466 618.87 430.066 625.11 412.386L629.64 401.846H657.46L654.83 409.836C654.99 412.746 655.42 414.586 656.11 415.356C656.8 416.126 663.51 416.366 676.23 416.076C683.12 415.246 687.4 411.426 689.07 404.626C690.74 397.826 689.98 393.516 686.78 391.706C683.58 389.896 678.27 389.196 670.85 389.616C663.43 390.036 656.55 389.866 650.21 389.116C643.87 388.366 639.57 386.566 637.31 383.716C635.05 380.866 634.82 375.596 636.64 367.896C638.45 360.196 639.89 353.826 640.95 348.776C642.01 343.726 642.94 339.776 643.73 336.956C644.52 334.126 646.26 331.616 648.93 329.406C651.6 327.206 655.11 325.796 659.45 325.196C663.79 324.596 671.69 324.296 683.15 324.296C694.61 324.296 701.94 324.446 705.16 324.736Z" fill="currentColor"/>
<path d="M553.22 166.876L637.24 231.956L586.41 296.496L579.77 270.576L610.27 231.846L559.86 192.806L553.22 166.876Z" fill="currentColor" stroke="currentColor" stroke-width="3" stroke-miterlimit="10"/>
<path d="M600.42 167.066L684.44 232.146L633.61 296.686L626.97 270.766L657.47 232.046L607.05 192.996L600.42 167.066Z" fill="currentColor" stroke="currentColor" stroke-width="3" stroke-miterlimit="10"/>
<path d="M647.62 167.256L731.64 232.336L680.81 296.876L674.17 270.956L704.67 232.236L654.25 193.186L647.62 167.256Z" fill="currentColor" stroke="currentColor" stroke-width="3" stroke-miterlimit="10"/>
</svg>
